<svg width="72" height="83" viewBox="0 0 72 83" fill="none" xmlns="http://www.w3.org/2000/svg">
<g clip-path="url(#clip0_96_198)">
<path d="M0 2.12457C0 0.904825 0.941848 0 2.08456 0C3.22728 0 4.2093 0.904825 4.2093 2.12457C4.2093 3.34431 3.22728 4.28905 2.08456 4.28905C0.941848 4.28905 0 3.34431 0 2.12457Z" fill="#878787"/>
<path d="M11.2979 2.12457C11.2979 0.904825 12.2442 0 13.3824 0C14.5207 0 15.5072 0.904825 15.5072 2.12457C15.5072 3.34431 14.5251 4.28905 13.3824 4.28905C12.2397 4.28905 11.2979 3.34431 11.2979 2.12457" fill="#878787"/>
<path d="M22.5952 2.12457C22.5952 0.904825 23.5415 0 24.6798 0C25.818 0 26.8045 0.904825 26.8045 2.12457C26.8045 3.34431 25.8225 4.28905 24.6798 4.28905C23.5371 4.28905 22.5952 3.34431 22.5952 2.12457Z" fill="#878787"/>
<path d="M33.8931 2.12457C33.8931 0.904825 34.8394 0 35.9776 0C37.1159 0 38.1024 0.904825 38.1024 2.12457C38.1024 3.34431 37.1203 4.28905 35.9776 4.28905C34.8349 4.28905 33.8931 3.34431 33.8931 2.12457Z" fill="#878787"/>
<path d="M45.1909 2.12457C45.1909 0.904825 46.1372 0 47.2755 0C48.4137 0 49.4002 0.904825 49.4002 2.12457C49.4002 3.34431 48.4182 4.28905 47.2755 4.28905C46.1328 4.28905 45.1909 3.34431 45.1909 2.12457Z" fill="#878787"/>
<path d="M56.4888 2.12457C56.4888 0.904825 57.4351 0 58.5733 0C59.7116 0 60.6981 0.904825 60.6981 2.12457C60.6981 3.34431 59.716 4.28905 58.5733 4.28905C57.4306 4.28905 56.4888 3.34431 56.4888 2.12457Z" fill="#878787"/>
<path d="M67.7861 2.12457C67.7861 0.904825 68.7324 0 69.8707 0C71.0089 0 71.9954 0.904825 71.9954 2.12457C71.9954 3.34431 71.0134 4.28905 69.8707 4.28905C68.728 4.28905 67.7861 3.34431 67.7861 2.12457Z" fill="#878787"/>
<path d="M0 21.8045C0 20.5848 0.941848 19.6799 2.08456 19.6799C3.22728 19.6799 4.2093 20.5848 4.2093 21.8045C4.2093 23.0242 3.22728 23.969 2.08456 23.969C0.941848 23.969 0 23.0242 0 21.8045Z" fill="#878787"/>
<path d="M11.2979 21.8045C11.2979 20.5848 12.2442 19.6799 13.3824 19.6799C14.5207 19.6799 15.5072 20.5848 15.5072 21.8045C15.5072 23.0242 14.5251 23.969 13.3824 23.969C12.2397 23.969 11.2979 23.0242 11.2979 21.8045" fill="#878787"/>
<path d="M22.5952 21.8045C22.5952 20.5848 23.5415 19.6799 24.6798 19.6799C25.818 19.6799 26.8045 20.5848 26.8045 21.8045C26.8045 23.0242 25.8225 23.969 24.6798 23.969C23.5371 23.969 22.5952 23.0242 22.5952 21.8045Z" fill="#878787"/>
<path d="M33.8931 21.8045C33.8931 20.5848 34.8394 19.6799 35.9776 19.6799C37.1159 19.6799 38.1024 20.5848 38.1024 21.8045C38.1024 23.0242 37.1203 23.969 35.9776 23.969C34.8349 23.969 33.8931 23.0242 33.8931 21.8045Z" fill="#878787"/>
<path d="M45.1909 21.8045C45.1909 20.5848 46.1372 19.6799 47.2755 19.6799C48.4137 19.6799 49.4002 20.5848 49.4002 21.8045C49.4002 23.0242 48.4182 23.969 47.2755 23.969C46.1328 23.969 45.1909 23.0242 45.1909 21.8045Z" fill="#878787"/>
<path d="M56.4888 21.8045C56.4888 20.5848 57.4351 19.6799 58.5733 19.6799C59.7116 19.6799 60.6981 20.5848 60.6981 21.8045C60.6981 23.0242 59.716 23.969 58.5733 23.969C57.4306 23.969 56.4888 23.0242 56.4888 21.8045Z" fill="#878787"/>
<path d="M67.7861 21.8045C67.7861 20.5848 68.7324 19.6799 69.8707 19.6799C71.0089 19.6799 71.9954 20.5848 71.9954 21.8045C71.9954 23.0242 71.0134 23.969 69.8707 23.969C68.728 23.969 67.7861 23.0242 67.7861 21.8045Z" fill="#878787"/>
<path d="M0 41.48C0 40.2603 0.941848 39.3555 2.08456 39.3555C3.22728 39.3555 4.2093 40.2603 4.2093 41.48C4.2093 42.6998 3.22728 43.6445 2.08456 43.6445C0.941848 43.6445 0 42.6998 0 41.48Z" fill="#878787"/>
<path d="M11.2979 41.48C11.2979 40.2603 12.2442 39.3555 13.3824 39.3555C14.5207 39.3555 15.5072 40.2603 15.5072 41.48C15.5072 42.6998 14.5251 43.6445 13.3824 43.6445C12.2397 43.6445 11.2979 42.6998 11.2979 41.48" fill="#878787"/>
<path d="M22.5952 41.48C22.5952 40.2603 23.5415 39.3555 24.6798 39.3555C25.818 39.3555 26.8045 40.2603 26.8045 41.48C26.8045 42.6998 25.8225 43.6445 24.6798 43.6445C23.5371 43.6445 22.5952 42.6998 22.5952 41.48Z" fill="#878787"/>
<path d="M33.8931 41.48C33.8931 40.2603 34.8394 39.3555 35.9776 39.3555C37.1159 39.3555 38.1024 40.2603 38.1024 41.48C38.1024 42.6998 37.1203 43.6445 35.9776 43.6445C34.8349 43.6445 33.8931 42.6998 33.8931 41.48Z" fill="#878787"/>
<path d="M45.1909 41.48C45.1909 40.2603 46.1372 39.3555 47.2755 39.3555C48.4137 39.3555 49.4002 40.2603 49.4002 41.48C49.4002 42.6998 48.4182 43.6445 47.2755 43.6445C46.1328 43.6445 45.1909 42.6998 45.1909 41.48Z" fill="#878787"/>
<path d="M56.4888 41.48C56.4888 40.2603 57.4351 39.3555 58.5733 39.3555C59.7116 39.3555 60.6981 40.2603 60.6981 41.48C60.6981 42.6998 59.716 43.6445 58.5733 43.6445C57.4306 43.6445 56.4888 42.6998 56.4888 41.48Z" fill="#878787"/>
<path d="M67.7861 41.48C67.7861 40.2603 68.7324 39.3555 69.8707 39.3555C71.0089 39.3555 71.9954 40.2603 71.9954 41.48C71.9954 42.6998 71.0134 43.6445 69.8707 43.6445C68.728 43.6445 67.7861 42.6998 67.7861 41.48Z" fill="#878787"/>
<path d="M0 61.16C0 59.9402 0.941848 59.0354 2.08456 59.0354C3.22728 59.0354 4.2093 59.9402 4.2093 61.16C4.2093 62.3797 3.22728 63.3244 2.08456 63.3244C0.941848 63.3244 0 62.3797 0 61.16Z" fill="#878787"/>
<path d="M11.2979 61.16C11.2979 59.9402 12.2442 59.0354 13.3824 59.0354C14.5207 59.0354 15.5072 59.9402 15.5072 61.16C15.5072 62.3797 14.5251 63.3244 13.3824 63.3244C12.2397 63.3244 11.2979 62.3797 11.2979 61.16" fill="#878787"/>
<path d="M22.5952 61.16C22.5952 59.9402 23.5415 59.0354 24.6798 59.0354C25.818 59.0354 26.8045 59.9402 26.8045 61.16C26.8045 62.3797 25.8225 63.3244 24.6798 63.3244C23.5371 63.3244 22.5952 62.3797 22.5952 61.16Z" fill="#878787"/>
<path d="M33.8931 61.16C33.8931 59.9402 34.8394 59.0354 35.9776 59.0354C37.1159 59.0354 38.1024 59.9402 38.1024 61.16C38.1024 62.3797 37.1203 63.3244 35.9776 63.3244C34.8349 63.3244 33.8931 62.3797 33.8931 61.16Z" fill="#878787"/>
<path d="M45.1909 61.16C45.1909 59.9402 46.1372 59.0354 47.2755 59.0354C48.4137 59.0354 49.4002 59.9402 49.4002 61.16C49.4002 62.3797 48.4182 63.3244 47.2755 63.3244C46.1328 63.3244 45.1909 62.3797 45.1909 61.16Z" fill="#878787"/>
<path d="M56.4888 61.16C56.4888 59.9402 57.4351 59.0354 58.5733 59.0354C59.7116 59.0354 60.6981 59.9402 60.6981 61.16C60.6981 62.3797 59.716 63.3244 58.5733 63.3244C57.4306 63.3244 56.4888 62.3797 56.4888 61.16Z" fill="#878787"/>
<path d="M67.7861 61.16C67.7861 59.9402 68.7324 59.0354 69.8707 59.0354C71.0089 59.0354 71.9954 59.9402 71.9954 61.16C71.9954 62.3797 71.0134 63.3244 69.8707 63.3244C68.728 63.3244 67.7861 62.3797 67.7861 61.16Z" fill="#878787"/>
<path d="M0 80.8355C0 79.6158 0.941848 78.7109 2.08456 78.7109C3.22728 78.7109 4.2093 79.6158 4.2093 80.8355C4.2093 82.0552 3.22728 83 2.08456 83C0.941848 83 0 82.0552 0 80.8355Z" fill="#878787"/>
<path d="M11.2979 80.8355C11.2979 79.6158 12.2442 78.7109 13.3824 78.7109C14.5207 78.7109 15.5072 79.6158 15.5072 80.8355C15.5072 82.0552 14.5251 83 13.3824 83C12.2397 83 11.2979 82.0552 11.2979 80.8355" fill="#878787"/>
<path d="M22.5952 80.8355C22.5952 79.6158 23.5415 78.7109 24.6798 78.7109C25.818 78.7109 26.8045 79.6158 26.8045 80.8355C26.8045 82.0552 25.8225 83 24.6798 83C23.5371 83 22.5952 82.0552 22.5952 80.8355Z" fill="#878787"/>
<path d="M33.8931 80.8355C33.8931 79.6158 34.8394 78.7109 35.9776 78.7109C37.1159 78.7109 38.1024 79.6158 38.1024 80.8355C38.1024 82.0552 37.1203 83 35.9776 83C34.8349 83 33.8931 82.0552 33.8931 80.8355Z" fill="#878787"/>
<path d="M45.1909 80.8355C45.1909 79.6158 46.1372 78.7109 47.2755 78.7109C48.4137 78.7109 49.4002 79.6158 49.4002 80.8355C49.4002 82.0552 48.4182 83 47.2755 83C46.1328 83 45.1909 82.0552 45.1909 80.8355Z" fill="#878787"/>
<path d="M56.4888 80.8355C56.4888 79.6158 57.4351 78.7109 58.5733 78.7109C59.7116 78.7109 60.6981 79.6158 60.6981 80.8355C60.6981 82.0552 59.716 83 58.5733 83C57.4306 83 56.4888 82.0552 56.4888 80.8355Z" fill="#878787"/>
<path d="M67.7861 80.8355C67.7861 79.6158 68.7324 78.7109 69.8707 78.7109C71.0089 78.7109 71.9954 79.6158 71.9954 80.8355C71.9954 82.0552 71.0134 83 69.8707 83C68.728 83 67.7861 82.0552 67.7861 80.8355Z" fill="#878787"/>
</g>
<defs>
<clipPath id="clip0_96_198">
<rect width="72" height="83" fill="white"/>
</clipPath>
</defs>
</svg>
