<svg width="42" height="42" viewBox="0 0 42 42" fill="none" xmlns="http://www.w3.org/2000/svg">
<path d="M3.81817 5.92305C3.81817 4.88281 4.67726 4.03171 5.72726 4.03171H9.54543V0.249023H5.72726C2.55817 0.249023 0 2.78342 0 5.92305V9.70573H3.81817V5.92305Z" fill="#D0D0D0"/>
<path d="M3.81817 36.1845V32.4019H0V36.1845C0 39.3242 2.55817 41.8586 5.72726 41.8586H9.54543V38.0759H5.72726C4.67726 38.0759 3.81817 37.2248 3.81817 36.1845Z" fill="#D0D0D0"/>
<path d="M36.2728 0.249023H32.4546V4.03171H36.2728C37.3228 4.03171 38.1818 4.88281 38.1818 5.92305V9.70573H42V5.92305C42 2.78342 39.4418 0.249023 36.2728 0.249023Z" fill="#D0D0D0"/>
<path d="M38.1818 36.1845C38.1818 37.2248 37.3228 38.0759 36.2728 38.0759H32.4546V41.8586H36.2728C39.4418 41.8586 42 39.3242 42 36.1845V32.4019H38.1818V36.1845Z" fill="#D0D0D0"/>
<path d="M34.3634 26.4818V15.6255C34.3634 14.2637 33.638 13.0154 32.4543 12.3535L22.9089 6.90641C22.3171 6.56597 21.668 6.39575 20.9998 6.39575C20.3316 6.39575 19.6826 6.56597 19.0907 6.90641L9.54532 12.3346C8.36168 13.0154 7.63623 14.2637 7.63623 15.6255V26.4818C7.63623 27.8436 8.36168 29.0919 9.54532 29.7538L19.0907 35.2009C19.6826 35.5413 20.3316 35.7115 20.9998 35.7115C21.668 35.7115 22.3171 35.5413 22.9089 35.2009L32.4543 29.7538C33.638 29.0919 34.3634 27.8436 34.3634 26.4818ZM19.0907 30.8319L11.4544 26.4818V17.7249L19.0907 22.1317V30.8319ZM20.9998 18.8597L13.4399 14.4907L20.9998 10.1784L28.5598 14.4907L20.9998 18.8597ZM30.5453 26.4818L22.9089 30.8319V22.1317L30.5453 17.7249V26.4818Z" fill="#D0D0D0"/>
</svg>
