<svg width="60" height="61" viewBox="0 0 60 61" fill="none" xmlns="http://www.w3.org/2000/svg">
<g clip-path="url(#clip0_1163_4)">
<path fill-rule="evenodd" clip-rule="evenodd" d="M32.9905 43.5916H32.8756H32.7607H32.6484L32.531 43.5966L32.4186 43.5991L32.3062 43.6041L32.1214 43.6116L31.9416 43.6192L31.7618 43.6342L31.5895 43.6443L31.4171 43.6643L31.2523 43.6844L31.0875 43.707L30.9302 43.7296L30.7603 43.7547L30.6005 43.7873L30.4382 43.82L30.2833 43.8551L30.131 43.8978L29.9836 43.9379L29.8413 43.9806L29.7014 44.0308L29.5641 44.081L29.4367 44.1337L29.3093 44.1914L29.1895 44.2517L29.0746 44.3169L28.9597 44.3822L28.8573 44.4499L28.7549 44.5252L28.6575 44.603L28.5676 44.6808L28.4802 44.7612L28.4003 44.849L28.3279 44.9419L28.2604 45.0372L28.2005 45.1326L28.1431 45.2355L28.0956 45.3409L28.0507 45.4489L28.0107 45.5618L27.9807 45.6773L27.9607 45.8002L27.9408 45.9257L27.9308 46.0512L27.9258 46.1843L27.9308 46.3022L27.9383 46.4177L27.9483 46.5281L27.9682 46.6385L27.9907 46.7414L28.0157 46.8393L28.0507 46.9397L28.0831 47.0301L28.1256 47.1179L28.1705 47.2058L28.2205 47.2861L28.2754 47.3664L28.3304 47.4417L28.3953 47.512L28.4577 47.5797L28.5302 47.645L28.6001 47.7027L28.68 47.7579L28.7574 47.8132L28.8448 47.8583L28.9297 47.9035L29.0221 47.9462L29.117 47.9838L29.2119 48.014L29.3143 48.0441L29.4167 48.0717L29.5241 48.0893L29.6315 48.1093L29.7439 48.1244L29.8563 48.1319L29.9736 48.1394H30.0935H30.2284L30.3632 48.1294L30.4981 48.1169L30.628 48.0968L30.7528 48.0742L30.8802 48.0491L31.0001 48.014L31.12 47.9788L31.2398 47.9387L31.3547 47.8935L31.4671 47.8458L31.5745 47.7931L31.6794 47.7354L31.7843 47.6776L31.8817 47.6149L31.9791 47.5496L32.074 47.4794L32.1664 47.4091L32.2538 47.3363L32.3362 47.2585L32.4186 47.1782L32.4985 47.1004L32.5684 47.015L32.6409 46.9322L32.7083 46.8469L32.7707 46.759L32.8307 46.6687L32.8881 46.5808L32.9406 46.4905L32.988 46.3976L33.033 46.3072L33.0754 46.2119L33.0904 46.1717L33.1054 46.1341L33.1179 46.1039L33.1279 46.0588L33.1403 46.0086L33.1503 45.9734L33.1703 45.878L33.1878 45.7852L33.1978 45.6848L33.2103 45.5894L33.2178 45.4915L33.2253 45.3962L33.2278 45.3008V45.2079V43.5916H33.1079H32.9905Z" fill="#7B7B7B"/>
<path fill-rule="evenodd" clip-rule="evenodd" d="M59.9874 9.64791L59.9474 9.12836L59.885 8.62137L59.7976 8.1219L59.6852 7.62997L59.5503 7.14556L59.3905 6.6737L59.2157 6.21189L59.0134 5.76262L58.7911 5.3259L58.5514 4.89922L58.2941 4.4876L58.0169 4.08853L57.7172 3.70201L57.4051 3.33557L57.0704 2.98168L56.7258 2.64535L56.3611 2.32409L55.984 2.01789L55.5944 1.73678L55.1874 1.47324L54.7678 1.22477L54.3382 1.00139L53.8962 0.798087L53.4417 0.614866L52.9772 0.454234L52.5002 0.318701L52.0157 0.203246L51.5237 0.115401L51.0217 0.0501439L50.5172 0.00747602L49.9978 -0.00256348H10.0044L9.48747 0.00747602L8.98049 0.0501439L8.47852 0.115401L7.98653 0.203246L7.49954 0.318701L7.02753 0.454234L6.56301 0.614866L6.10848 0.798087L5.66145 1.00139L5.2294 1.22477L4.81233 1.47324L4.40276 1.73678L4.01317 2.01789L3.63356 2.32409L3.26894 2.64535L2.9243 2.98168L2.58965 3.33557L2.27748 3.70201L1.98028 4.08853L1.69808 4.4876L1.43835 4.89922L1.1986 5.3259L0.976331 5.76262L0.774041 6.21189L0.596726 6.6737L0.43939 7.14556L0.30453 7.62997L0.192147 8.1219L0.104738 8.62137L0.039806 9.12836L-0.00264973 9.64791L-0.0151367 10.1725V50.84L-0.00264973 51.362L0.039806 51.8766L0.104738 52.3886L0.192147 52.888L0.30453 53.38L0.43939 53.8644L0.596726 54.3337L0.774041 54.7955L0.976331 55.2498L1.1986 55.684L1.43835 56.1107L1.69808 56.5223L1.98028 56.9214L2.27748 57.3029L2.58965 57.6719L2.9243 58.0257L3.26894 58.3621L3.63356 58.6833L4.01317 58.9845L4.40276 59.2656L4.81233 59.5292L5.2294 59.7726L5.66145 59.9985L6.10848 60.2043L6.56301 60.3825L7.02753 60.5432L7.49954 60.6812L7.98653 60.7966L8.47852 60.8845L8.98049 60.9497L9.48747 60.9924L10.0044 61.005H49.9978L50.5172 60.9924L51.0217 60.9497L51.5237 60.8845L52.0157 60.7966L52.5002 60.6812L52.9772 60.5432L53.4417 60.3825L53.8962 60.2043L54.3382 59.9985L54.7678 59.7726L55.1874 59.5292L55.5944 59.2656L55.984 58.9845L56.3611 58.6833L56.7258 58.3621L57.0704 58.0257L57.4051 57.6719L57.7172 57.3029L58.0169 56.9214L58.2941 56.5223L58.5514 56.1107L58.7911 55.684L59.0134 55.2498L59.2157 54.7955L59.3905 54.3337L59.5503 53.8644L59.6852 53.38L59.7976 52.888L59.885 52.3886L59.9474 51.8766L59.9874 51.362L59.9998 50.84V10.1725L59.9874 9.64791ZM9.66478 50.8324H4.99964V30.4949H9.66478V50.8299V50.8324ZM48.6592 30.4924H53.0646L49.0987 34.6036H45.8446L48.6567 30.4924H48.6592ZM21.5124 50.7597L21.2827 50.8475L21.0504 50.9303L20.928 50.968L20.8057 51.0056L20.6758 51.0408L20.5335 51.0709L20.3861 51.101L20.2263 51.1286L20.0565 51.1512L19.8741 51.1713L19.6793 51.1863L19.4646 51.1989L19.2373 51.2064L18.9901 51.2114L18.8402 51.2064L18.6929 51.2014L18.5455 51.1939L18.4032 51.1788L18.2608 51.1637L18.1235 51.1487L17.9836 51.1261L17.8488 51.0985L17.7139 51.0709L17.5815 51.0408L17.4492 51.0106L17.3218 50.973L17.1969 50.9353L17.0721 50.8927L16.9522 50.85L16.8323 50.7998L16.7199 50.7546L16.6026 50.7019L16.4927 50.6492L16.3828 50.5965L16.2779 50.5363L16.178 50.4785L16.0756 50.4183L15.9807 50.3531L15.8858 50.2878L15.7909 50.22L15.7035 50.1523L15.6186 50.0845L15.5387 50.0117L15.4587 49.9389L15.3838 49.8636L15.3089 49.7883L15.229 49.7005L15.1491 49.6051L15.0741 49.5097L15.0017 49.4093L14.9293 49.3014L14.8619 49.1935L14.7969 49.0831L14.737 48.9676L14.6771 48.8521L14.6221 48.7292L14.5697 48.6062L14.5172 48.4757L14.4673 48.3452L14.4223 48.2121L14.3774 48.0741L14.3374 47.9335L14.3 47.788L14.2675 47.6424L14.2325 47.4893L14.2026 47.3362L14.1726 47.1806L14.1451 47.0199L14.1226 46.8568L14.1052 46.6937L14.0877 46.523L14.0727 46.3523L14.0577 46.1766L14.0452 45.9984L14.0377 45.8202L14.0327 45.6345V45.4488L14.0252 45.258V39.0586H11.9V35.585H14.0252V30.4949H18.5555V35.585H21.45V39.0586H18.5555V44.7987L18.5655 44.9593L18.573 45.12L18.5855 45.2731L18.6005 45.4186L18.6205 45.5642L18.6379 45.7023L18.6654 45.8328L18.6929 45.9633L18.7253 46.0813L18.7578 46.1992L18.8003 46.3096L18.8452 46.4126L18.8952 46.5155L18.9476 46.6058L19.005 46.6962L19.0675 46.779L19.1349 46.8543L19.2098 46.9271L19.2848 46.9923L19.3722 47.0576L19.4621 47.1103L19.5545 47.1605L19.6544 47.2057L19.7643 47.2433L19.8766 47.2734L19.9965 47.3011L20.1239 47.3236L20.2587 47.3387L20.3986 47.3462L20.5484 47.3512L20.7183 47.3462L20.8756 47.3337L21.0229 47.3211L21.1528 47.3011L21.2702 47.281L21.3626 47.2584L21.4425 47.2358L21.5024 47.2132V50.7546L21.5124 50.7597ZM37.4958 50.8324H33.6997L33.1903 49.2512H33.1378L33.0404 49.3667L32.9405 49.4771L32.8356 49.585L32.7283 49.6879L32.6184 49.7908L32.501 49.8912L32.3811 49.9866L32.2587 50.077L32.1364 50.1648L32.004 50.2527L31.8741 50.333L31.7393 50.4133L31.5994 50.4886L31.4571 50.5564L31.3097 50.6241L31.1624 50.6894L31.0125 50.7496L30.8602 50.8099L30.7029 50.8626L30.5455 50.9128L30.3832 50.9579L30.2184 51.0006L30.0535 51.0383L29.8862 51.0759L29.7139 51.106L29.5416 51.1336L29.3643 51.1562L29.1894 51.1763L29.0096 51.1914L28.8298 51.1989L28.645 51.2064L28.4577 51.2114L28.1505 51.2039L27.8508 51.1838L27.5611 51.1487L27.2814 51.1035L27.0117 51.0458L26.7445 50.978L26.4947 50.8977L26.25 50.8073L26.0128 50.707L25.788 50.5965L25.5707 50.4735L25.3634 50.343L25.1686 50.205L24.9788 50.0594L24.8015 49.9063L24.6342 49.7457L24.4769 49.5775L24.327 49.4018L24.1872 49.2236L24.0598 49.0379L23.9424 48.8471L23.8325 48.6539L23.7326 48.4556L23.6452 48.2548L23.5653 48.049L23.4979 47.8382L23.4404 47.6248L23.393 47.4115L23.353 47.1981L23.3256 46.9798L23.3106 46.7614V46.5431L23.3181 46.1816L23.348 45.8278L23.4055 45.4889L23.4804 45.1601L23.5728 44.8389L23.6902 44.5327L23.8275 44.234L23.9799 43.9529L24.1597 43.6818L24.3545 43.4183L24.5693 43.1698L24.8065 42.9339L25.0562 42.7055L25.331 42.4921L25.6207 42.2913L25.9278 42.1006L26.255 41.9224L26.5996 41.7542L26.9593 41.5986L27.3339 41.453L27.7285 41.32L28.1405 41.197L28.5651 41.0866L29.0071 40.9912L29.4642 40.9034L29.9412 40.8306L30.4282 40.7653L30.9301 40.7151L31.4471 40.6775L31.979 40.6499L32.526 40.6348L33.0854 40.6298V40.3989L33.0779 40.3261L33.0679 40.2508L33.0529 40.1705L33.0329 40.0927L33.0105 40.0074L32.9855 39.922L32.9505 39.8342L32.9106 39.7463L32.8656 39.661L32.8132 39.5731L32.7557 39.4828L32.6933 39.3949L32.6209 39.3096L32.5385 39.2218L32.451 39.1364L32.3586 39.0586L32.2537 38.9783L32.1414 38.903L32.0215 38.8302L31.8941 38.7625L31.7568 38.6972L31.6069 38.637L31.4446 38.5792L31.2773 38.529L31.0975 38.4839L30.9052 38.4462L30.7029 38.4111L30.4931 38.3885L30.2683 38.3684L30.0286 38.3584H29.4692L29.3168 38.3684L29.1595 38.381L29.0071 38.391L28.8498 38.4111L28.69 38.4286L28.5376 38.4512L28.3803 38.4788L28.2279 38.5064L28.0706 38.5366L27.9158 38.5717L27.7659 38.6068L27.6136 38.6445L27.4637 38.6821L27.3139 38.7248L27.1665 38.765L27.0217 38.8127L26.8793 38.8603L26.7395 38.908L26.6021 38.9557L26.4673 39.0084L26.3324 39.0611L26.2001 39.1138L26.0727 39.1665L25.9503 39.2243L25.8304 39.282L25.7131 39.3397L25.6007 39.3975L25.4933 39.4577L25.3884 39.5179L25.2885 39.5782L24.4094 36.5814L24.5218 36.5161L24.6392 36.4509L24.7616 36.3856L24.8889 36.3203L25.0238 36.2551L25.1636 36.1898L25.3085 36.1246L25.4583 36.0643L25.6132 35.9991L25.773 35.9388L25.9378 35.8786L26.1101 35.8209L26.2875 35.7632L26.4673 35.7054L26.6546 35.6527L26.8469 35.6L27.0442 35.5498L27.2465 35.4996L27.4537 35.4544L27.6635 35.4118L27.8808 35.3716L28.1031 35.334L28.3278 35.2988L28.5576 35.2637L28.7949 35.2361L29.0346 35.2085L29.2793 35.1859L29.5266 35.1708L29.7763 35.1558L30.0361 35.1457L30.2983 35.1357H30.5655L31.0375 35.1457L31.492 35.1733L31.9291 35.2135L32.3462 35.2712L32.7432 35.3465L33.1228 35.4369L33.4875 35.5398L33.8271 35.6628L34.1543 35.7958L34.4615 35.9439L34.7536 36.1045L35.0284 36.2802L35.2881 36.4659L35.5328 36.6642L35.7626 36.8725L35.9724 37.0959L36.1672 37.3268L36.3495 37.5703L36.5143 37.8238L36.6667 38.0848L36.804 38.3559L36.9339 38.6344L37.0413 38.9206L37.1437 39.2167L37.2311 39.5179L37.301 39.8266L37.3634 40.1454L37.4134 40.4692L37.4508 40.798L37.4783 41.1293L37.4958 41.4656L37.5008 41.8094V50.8224L37.4958 50.8324ZM55.0001 50.8324H51.3039L50.717 48.6664L50.6571 48.7568L50.5946 48.8446L50.5247 48.94L50.4448 49.0354L50.3624 49.1333L50.2775 49.2362L50.1826 49.3441L50.0827 49.452L49.9778 49.5624L49.8679 49.6704L49.7505 49.7783L49.6282 49.8812L49.4983 49.9816L49.3634 50.0795L49.2211 50.1749L49.0737 50.2702L48.9214 50.3606L48.7616 50.4509L48.5917 50.5338L48.4144 50.6166L48.2321 50.6919L48.0448 50.7672L47.845 50.84L47.6427 50.9077L47.5378 50.9379L47.4304 50.968L47.3206 50.9981L47.2107 51.0207L47.0983 51.0483L46.9809 51.0684L46.8635 51.091L46.7462 51.106L46.6263 51.1261L46.5039 51.1386L46.3815 51.1512L46.2517 51.1637L46.1243 51.1713H45.9969L45.8671 51.1788H45.5774L45.425 51.1713L45.2752 51.1663L45.1253 51.1537L44.978 51.1386L44.8306 51.1236L44.6883 51.1035L44.5459 51.0809L44.4036 51.0583L44.2637 51.0282L44.1289 50.9981L43.989 50.963L43.8592 50.9278L43.7243 50.8852L43.5969 50.8425L43.4671 50.7973L43.3372 50.7471L43.2148 50.6969L43.0925 50.6392L42.9726 50.5815L42.8552 50.5162L42.7378 50.4509L42.6254 50.3832L42.5131 50.3104L42.4032 50.2351L42.2958 50.1548L42.1934 50.072L42.0885 49.9841L41.9886 49.8963L41.8912 49.8009L41.7938 49.7055L41.7014 49.6026L41.6115 49.4997L41.5241 49.3918L41.4367 49.2813L41.3543 49.1659L41.2719 49.0504L41.1919 48.9274L41.117 48.802L41.0471 48.6765L40.9772 48.5434L40.9047 48.4104L40.8423 48.2724L40.7799 48.1318L40.7174 47.9862L40.66 47.8382L40.6001 47.6851L40.5476 47.5294L40.4977 47.3738L40.4527 47.2107L40.4078 47.0425L40.3653 46.8719L40.3253 46.6962L40.2929 46.518L40.2629 46.3347L40.2329 46.149L40.2105 45.9558L40.188 45.7625L40.1705 45.5617L40.1555 45.3559L40.1455 45.1451L40.1355 44.9342L40.128 44.7159V35.5824H44.6808V43.8675L44.6908 44.0809L44.7033 44.2917L44.7208 44.4925L44.7432 44.6908L44.7707 44.8815L44.8032 45.0648L44.8406 45.243L44.8831 45.4136L44.9305 45.5818L44.988 45.7424L45.0454 45.8955L45.1129 46.0411L45.1828 46.1816L45.2577 46.3147L45.3401 46.4402L45.4275 46.5581L45.5174 46.6686L45.6173 46.7765L45.7172 46.8719L45.8271 46.9622L45.9445 47.045L46.0644 47.1203L46.1917 47.1856L46.3241 47.2458L46.4614 47.2985L46.6088 47.3437L46.7586 47.3789L46.916 47.409L47.0808 47.4291L47.2481 47.4416L47.4205 47.4466H47.5628L47.6977 47.4341L47.8325 47.4215L47.9599 47.3989L48.0873 47.3763L48.2121 47.3462L48.332 47.3111L48.4469 47.2684L48.5593 47.2258L48.6692 47.1756L48.774 47.1228L48.8789 47.0701L48.9763 47.0099L49.0737 46.9497L49.1636 46.8819L49.2535 46.8141L49.341 46.7413L49.4234 46.6686L49.5033 46.5933L49.5782 46.518L49.6481 46.4377L49.7206 46.3548L49.783 46.272L49.8454 46.1892L49.9054 46.1063L49.9628 46.0185L50.0152 45.9307L50.0627 45.8478L50.1077 45.76L50.1526 45.6721L50.1951 45.5843L50.2275 45.4964L50.2675 45.3885L50.3 45.2731L50.3274 45.1576L50.3474 45.0346L50.3649 44.9116L50.3774 44.7862L50.3849 44.6556V35.59H55.0051V50.8274L55.0001 50.8324Z" fill="#7B7B7B"/>
</g>
<defs>
<clipPath id="clip0_1163_4">
<rect width="60" height="61" fill="white"/>
</clipPath>
</defs>
</svg>
