<svg width="102" height="35" viewBox="0 0 102 35" fill="none" xmlns="http://www.w3.org/2000/svg">
<g clip-path="url(#clip0_1162_2)">
<path d="M77.8073 10.273H80.4271C81.6204 10.273 82.4493 10.7805 82.4493 11.9967C82.4493 13.1458 81.6204 13.6869 80.4271 13.6869H73.0237C73.4692 11.7834 74.6919 10.2747 77.8073 10.2747V10.273ZM55.8044 23.1919C55.8044 25.321 54.2156 26.8314 52.1588 26.8314H48.7118C45.928 26.8314 44.1061 25.7176 44.1061 22.9099C44.1061 20.1023 45.928 18.8157 48.7118 18.8157H55.8026V23.1937L55.8044 23.1919ZM27.1389 10.2765H29.7586C30.952 10.2765 31.7809 10.7841 31.7809 12.0002C31.7809 13.1493 30.952 13.6904 29.7586 13.6904H22.3535C22.7991 11.7869 24.0235 10.2782 27.1389 10.2782V10.2765ZM100.905 21.8789H78.4048C75.1288 21.8789 73.7369 20.5711 73.1705 18.8351H80.2613C84.9983 18.8351 87.9168 16.706 87.9168 12.1059C87.9168 7.50586 84.9983 5.13708 80.2613 5.13708H78.018C73.7835 5.13708 68.6096 7.65743 67.5234 13.6939H61.1838V0.5H55.813V13.6957H49.185C42.835 13.7274 39.2948 17.0109 38.8354 21.8859H27.745C24.469 21.8859 23.0771 20.5782 22.5107 18.8421H29.5998C34.3385 18.8421 37.2553 16.7131 37.2553 12.113C37.2553 7.51291 34.3402 5.14413 29.5998 5.14413H27.3478C23.0996 5.14413 17.9395 7.66448 16.8532 13.701H12.2026C9.28403 13.701 6.70053 14.6104 5.2758 16.4081V14.1081H0V33.0812C0 34.1616 0.331573 34.5 1.35738 34.5H4.01168C5.0064 34.5 5.37078 34.1616 5.37078 33.0812V25.6048C5.37078 19.9578 8.84884 18.8404 12.4288 18.8404H16.8877C18.0016 24.4433 22.6039 27.1258 27.9281 27.1258H39.4882C40.8249 30.367 43.9869 32.0643 49.0727 32.0643H52.1605C57.198 32.0643 61.4411 28.4106 61.4411 23.0351V18.8404H67.5648C68.6787 24.4433 73.281 27.1258 78.6051 27.1258H100.907C101.199 27.1205 101.477 26.9971 101.681 26.7839C101.884 26.5706 102 26.2851 101.998 25.9872V22.9505C101.997 22.8059 101.967 22.6632 101.91 22.531C101.855 22.3988 101.774 22.279 101.672 22.1785C101.57 22.078 101.451 21.9987 101.32 21.9459C101.188 21.893 101.047 21.8665 100.907 21.8683" fill="#AFAFAF"/>
</g>
<defs>
<clipPath id="clip0_1162_2">
<rect width="102" height="34" fill="white" transform="translate(0 0.5)"/>
</clipPath>
</defs>
</svg>
