<svg width="72" height="49" viewBox="0 0 72 49" fill="none" xmlns="http://www.w3.org/2000/svg">
<g clip-path="url(#clip0_1160_698)">
<path d="M46.2983 48.4152H44.5551C44.4886 48.4152 44.4341 48.3608 44.4341 48.2942V42.1074C44.4341 41.4173 44.773 41.0662 45.4388 40.8846C46.2644 40.6388 47.1202 40.5129 47.9809 40.5093C50.2687 40.5093 51.1645 41.6837 51.1645 43.3181V48.2942C51.1645 48.3608 51.1101 48.4152 51.0435 48.4152H49.3245C49.258 48.4152 49.2035 48.3608 49.2035 48.2942V43.4876C49.2035 42.7612 48.8888 42.1922 47.8719 42.1922C47.4083 42.1958 46.9483 42.266 46.5041 42.398C46.4556 42.4125 46.4217 42.4561 46.4193 42.507V48.2942C46.423 48.3571 46.3757 48.4116 46.3128 48.4152C46.308 48.4152 46.3031 48.4152 46.2983 48.4152Z" fill="#7B7B7B"/>
<path d="M55.7887 41.9017C54.796 41.9017 54.1787 42.5797 54.0697 43.6693C54.0625 43.7359 54.1121 43.7952 54.1787 43.8013C54.1823 43.8013 54.1872 43.8013 54.1908 43.8013H57.3986C57.4652 43.8013 57.5197 43.7468 57.5197 43.6802C57.4713 42.6874 56.9508 41.9004 55.7887 41.9004M57.7255 48.3657C57.7037 48.3971 57.6674 48.4165 57.6286 48.4141H56.0671C53.7308 48.4141 52.145 47.1671 52.145 44.5156C52.145 41.7188 53.8518 40.4718 55.8371 40.4718C58.0039 40.4718 59.4202 41.6946 59.4202 44.3098C59.4202 44.8667 59.166 45.1331 58.597 45.1331H54.2029C54.1363 45.1331 54.0818 45.1863 54.0806 45.2529C54.0806 45.2578 54.0806 45.2614 54.0806 45.265C54.2259 46.3789 55.0732 46.8147 56.2111 46.8147H58.5353C58.6019 46.8196 58.6527 46.8765 58.6479 46.9431C58.6467 46.9612 58.6406 46.9794 58.6321 46.9963L57.7243 48.3645L57.7255 48.3657Z" fill="#7B7B7B"/>
<path d="M64.5649 48.3547L63.088 45.9696C63.0553 45.9163 62.9851 45.8994 62.9319 45.9321C62.9174 45.9417 62.904 45.9539 62.8944 45.9696L61.4054 48.3547C61.3848 48.3898 61.3485 48.4128 61.3086 48.4152H59.3233C59.2568 48.4104 59.2059 48.3535 59.2108 48.2869C59.212 48.2687 59.218 48.2506 59.2265 48.2336L61.6838 44.5531C61.7081 44.5119 61.7081 44.461 61.6838 44.4199L59.2749 40.7635C59.241 40.7054 59.2616 40.6315 59.3185 40.5976C59.3342 40.588 59.3524 40.5831 59.3718 40.5819H61.3691C61.4091 40.5843 61.4454 40.6073 61.4659 40.6424L62.8944 42.9186C62.9295 42.9755 63.0045 42.9924 63.0614 42.9573C63.0771 42.9476 63.0905 42.9343 63.1001 42.9186L64.4559 40.6424C64.4765 40.6073 64.5128 40.5843 64.5528 40.5819H66.538C66.6046 40.5868 66.6554 40.6437 66.6506 40.7102C66.6494 40.7284 66.6433 40.7466 66.6348 40.7635L64.3107 44.3472C64.2864 44.3884 64.2864 44.4392 64.3107 44.4804L66.768 48.2457C66.8019 48.3038 66.7813 48.3777 66.7244 48.4116C66.7087 48.4213 66.6905 48.4261 66.6712 48.4273H64.6496C64.6254 48.4152 64.577 48.391 64.5649 48.3547Z" fill="#7B7B7B"/>
<path d="M71.9975 48.0884C72.0108 48.1489 71.9733 48.2083 71.9128 48.2216C71.3257 48.3911 70.7192 48.4855 70.1091 48.5C68.3055 48.5 67.4702 47.5194 67.4702 45.6064V39.0807C67.4702 39.0226 67.5102 38.9717 67.5671 38.9596L69.2618 38.6448C69.3223 38.6327 69.3816 38.6739 69.3937 38.7344C69.3961 38.7453 69.3961 38.755 69.3949 38.7659V40.4609C69.3949 40.5275 69.4494 40.582 69.516 40.582H71.6586C71.7252 40.582 71.7796 40.6364 71.7796 40.703V41.9743C71.7796 42.0409 71.7252 42.0954 71.6586 42.0954H69.516C69.4494 42.0954 69.3949 42.1498 69.3949 42.2164V45.7517C69.3949 46.4539 69.6491 46.9503 70.4481 46.9503C70.8536 46.9309 71.2555 46.8656 71.6465 46.7566C71.7118 46.7421 71.776 46.7832 71.7905 46.8486V46.8535L71.9975 48.0884Z" fill="#7B7B7B"/>
<path d="M57.9437 36.2597C56.5213 36.2597 55.3701 35.1047 55.3701 33.6833C55.3701 33.2922 55.4597 32.9072 55.6316 32.5549L66.4415 10.1325C67.0637 8.8491 68.6083 8.31154 69.8914 8.93385C71.1746 9.55616 71.712 11.101 71.0898 12.3844L60.28 34.8068C59.8393 35.6955 58.9351 36.2573 57.9437 36.2597Z" fill="#7B7B7B"/>
<path d="M57.9434 36.2596C57.3309 36.2596 56.7389 36.0405 56.2729 35.6422L20.1997 5.0595C19.1296 4.12119 19.0218 2.49278 19.9612 1.42251C20.8763 0.378872 22.4536 0.246904 23.5286 1.12467L59.6018 31.7073C60.6876 32.6238 60.8256 34.2486 59.9081 35.3346L59.9044 35.3395C59.4226 35.9255 58.7024 36.2632 57.9434 36.2596Z" fill="#7B7B7B"/>
<path d="M2.58687 44.1656C1.1621 44.1693 0.00363896 43.0179 7.42867e-06 41.5929C-0.00241359 40.5795 0.587105 39.6581 1.50952 39.238L67.6761 8.90962C68.9725 8.31395 70.5062 8.8842 71.1018 10.1809C71.6974 11.4775 71.1272 13.0115 69.8308 13.6072L3.66423 43.9235C3.3277 44.0857 2.95971 44.1681 2.58687 44.1656Z" fill="#7B7B7B"/>
<path d="M2.58701 44.1656C2.18633 44.168 1.7917 44.0724 1.43702 43.8871C0.163567 43.2479 -0.350901 41.6982 0.287039 40.4245L19.5705 1.93587C20.2024 0.658563 21.7494 0.135535 23.0265 0.768738C24.3036 1.40073 24.8265 2.94803 24.1934 4.22533C24.1898 4.23259 24.1862 4.24107 24.1813 4.24833L4.89909 42.737C4.46088 43.6123 3.56631 44.1644 2.58701 44.1656Z" fill="#7B7B7B"/>
</g>
<defs>
<clipPath id="clip0_1160_698">
<rect width="72" height="48" fill="white" transform="translate(0 0.5)"/>
</clipPath>
</defs>
</svg>
