<svg width="42" height="34" viewBox="0 0 42 34" fill="none" xmlns="http://www.w3.org/2000/svg">
<path d="M42 22.6586H38.1818V26.4013H42V22.6586ZM42 15.1733H38.1818V18.916H42V15.1733ZM42 30.144H38.1818V33.8866C40.0909 33.8866 42 32.0153 42 30.144ZM26.7273 0.202637H22.9091V3.9453H26.7273V0.202637ZM42 7.68797H38.1818V11.4306H42V7.68797ZM38.1818 0.202637V3.9453H42C42 2.07397 40.0909 0.202637 38.1818 0.202637ZM3.81818 33.8866H19.0909V22.6586H0V30.144C0 32.2024 1.71818 33.8866 3.81818 33.8866ZM3.81818 7.68797H0V11.4306H3.81818V7.68797ZM26.7273 30.144H22.9091V33.8866H26.7273V30.144ZM34.3636 0.202637H30.5455V3.9453H34.3636V0.202637ZM34.3636 30.144H30.5455V33.8866H34.3636V30.144ZM3.81818 0.202637C1.90909 0.202637 0 2.07397 0 3.9453H3.81818V0.202637ZM3.81818 15.1733H0V18.916H3.81818V15.1733ZM19.0909 0.202637H15.2727V3.9453H19.0909V0.202637ZM11.4545 0.202637H7.63636V3.9453H11.4545V0.202637Z" fill="#D0D0D0"/>
</svg>
