<svg width="58" height="58" viewBox="0 0 58 58" fill="none" xmlns="http://www.w3.org/2000/svg">
<path d="M29 9.77311C25.1762 9.77311 21.4383 10.8964 18.259 13.0011C15.0796 15.1057 12.6016 18.0971 11.1383 21.597C9.67504 25.0968 9.29217 28.948 10.0382 32.6634C10.7841 36.3789 12.6255 39.7917 15.3293 42.4704C18.0331 45.1491 21.478 46.9733 25.2283 47.7124C28.9786 48.4514 32.8658 48.0721 36.3985 46.6224C39.9312 45.1727 42.9507 42.7177 45.0751 39.5679C47.1995 36.4181 48.3333 32.715 48.3333 28.9267C48.3315 23.8474 46.294 18.9767 42.6687 15.3851C39.0434 11.7935 34.1269 9.77495 29 9.77311ZM14.5 28.9267C14.5032 28.0469 14.588 27.1692 14.7534 26.3047L23.2 34.6728V36.5882C23.203 37.6032 23.6114 38.5759 24.3359 39.2936C25.0604 40.0114 26.0421 40.4159 27.0667 40.4189V43.1491C23.5907 42.6836 20.4025 40.9865 18.0922 38.3718C15.7819 35.7571 14.5057 32.4017 14.5 28.9267ZM36.7333 36.5882H34.8V30.8421C34.7985 30.3346 34.5943 29.8483 34.2321 29.4894C33.8698 29.1305 33.379 28.9282 32.8667 28.9267H21.2667V25.096H25.1333C25.6456 25.0945 26.1365 24.8923 26.4988 24.5334C26.861 24.1745 27.0652 23.6882 27.0667 23.1807V19.3499H30.9333C31.9142 19.3454 32.8567 18.9718 33.57 18.3048C34.2834 17.6379 34.7143 16.7273 34.7756 15.7575C36.8648 16.6524 38.7114 18.0231 40.1652 19.7582C41.619 21.4933 42.639 23.5439 43.1422 25.7431C43.6453 27.9423 43.6176 30.2281 43.0611 32.4147C42.5045 34.6012 41.435 36.6268 39.9395 38.3267C39.5959 37.7931 39.1219 37.354 38.5615 37.0501C38.001 36.7462 37.3722 36.5873 36.7333 36.5882ZM31.4167 2.59049C31.4167 3.06402 31.2749 3.52692 31.0094 3.92064C30.7438 4.31437 30.3664 4.62124 29.9248 4.80245C29.4832 4.98366 28.9973 5.03108 28.5285 4.93869C28.0597 4.84631 27.6291 4.61829 27.2912 4.28345C26.9532 3.94862 26.723 3.52201 26.6298 3.05758C26.5365 2.59315 26.5844 2.11175 26.7673 1.67427C26.9502 1.23679 27.26 0.862864 27.6574 0.599785C28.0548 0.336707 28.522 0.196289 29 0.196289C29.6409 0.196289 30.2556 0.448535 30.7088 0.897535C31.1621 1.34654 31.4167 1.95551 31.4167 2.59049ZM43.5 4.9847C43.5 5.45823 43.3583 5.92112 43.0927 6.31485C42.8272 6.70857 42.4497 7.01544 42.0081 7.19665C41.5666 7.37787 41.0807 7.42528 40.6119 7.3329C40.1431 7.24052 39.7125 7.01249 39.3745 6.67766C39.0365 6.34282 38.8063 5.91621 38.7131 5.45178C38.6199 4.98735 38.6677 4.50596 38.8506 4.06848C39.0335 3.63099 39.3433 3.25707 39.7407 2.99399C40.1381 2.73091 40.6054 2.59049 41.0833 2.59049C41.7243 2.59049 42.339 2.84274 42.7922 3.29174C43.2454 3.74074 43.5 4.34972 43.5 4.9847ZM53.1667 14.5615C53.1667 15.035 53.0249 15.4979 52.7594 15.8917C52.4938 16.2854 52.1164 16.5923 51.6748 16.7735C51.2332 16.9547 50.7473 17.0021 50.2785 16.9097C49.8097 16.8173 49.3791 16.5893 49.0412 16.2545C48.7032 15.9196 48.473 15.493 48.3798 15.0286C48.2865 14.5642 48.3344 14.0828 48.5173 13.6453C48.7002 13.2078 49.01 12.8339 49.4074 12.5708C49.8048 12.3077 50.272 12.1673 50.75 12.1673C51.3909 12.1673 52.0056 12.4196 52.4588 12.8686C52.9121 13.3176 53.1667 13.9265 53.1667 14.5615ZM58 28.9267C58 29.4003 57.8583 29.8632 57.5927 30.2569C57.3272 30.6506 56.9497 30.9575 56.5081 31.1387C56.0666 31.3199 55.5807 31.3673 55.1119 31.2749C54.6431 31.1826 54.2125 30.9545 53.8745 30.6197C53.5365 30.2849 53.3063 29.8583 53.2131 29.3938C53.1199 28.9294 53.1677 28.448 53.3506 28.0105C53.5335 27.573 53.8433 27.1991 54.2407 26.936C54.6381 26.673 55.1054 26.5325 55.5833 26.5325C56.2243 26.5325 56.839 26.7848 57.2922 27.2338C57.7454 27.6828 58 28.2918 58 28.9267ZM53.1667 43.292C53.1667 43.7655 53.0249 44.2284 52.7594 44.6221C52.4938 45.0158 52.1164 45.3227 51.6748 45.5039C51.2332 45.6851 50.7473 45.7326 50.2785 45.6402C49.8097 45.5478 49.3791 45.3198 49.0412 44.9849C48.7032 44.6501 48.473 44.2235 48.3798 43.7591C48.2865 43.2946 48.3344 42.8132 48.5173 42.3758C48.7002 41.9383 49.01 41.5643 49.4074 41.3013C49.8048 41.0382 50.272 40.8978 50.75 40.8978C51.3909 40.8978 52.0056 41.15 52.4588 41.599C52.9121 42.048 53.1667 42.657 53.1667 43.292ZM43.5 52.8688C43.5 53.3423 43.3583 53.8052 43.0927 54.1989C42.8272 54.5927 42.4497 54.8995 42.0081 55.0807C41.5666 55.262 41.0807 55.3094 40.6119 55.217C40.1431 55.1246 39.7125 54.8966 39.3745 54.5617C39.0365 54.2269 38.8063 53.8003 38.7131 53.3359C38.6199 52.8714 38.6677 52.3901 38.8506 51.9526C39.0335 51.5151 39.3433 51.1412 39.7407 50.8781C40.1381 50.615 40.6054 50.4746 41.0833 50.4746C41.7243 50.4746 42.339 50.7268 42.7922 51.1758C43.2454 51.6248 43.5 52.2338 43.5 52.8688ZM31.4167 55.263C31.4167 55.7365 31.2749 56.1994 31.0094 56.5931C30.7438 56.9869 30.3664 57.2937 29.9248 57.475C29.4832 57.6562 28.9973 57.7036 28.5285 57.6112C28.0597 57.5188 27.6291 57.2908 27.2912 56.956C26.9532 56.6211 26.723 56.1945 26.6298 55.7301C26.5365 55.2657 26.5844 54.7843 26.7673 54.3468C26.9502 53.9093 27.26 53.5354 27.6574 53.2723C28.0548 53.0092 28.522 52.8688 29 52.8688C29.6409 52.8688 30.2556 53.121 30.7088 53.57C31.1621 54.019 31.4167 54.628 31.4167 55.263ZM19.3333 52.8688C19.3333 53.3423 19.1916 53.8052 18.9261 54.1989C18.6605 54.5927 18.2831 54.8995 17.8415 55.0807C17.3999 55.262 16.914 55.3094 16.4452 55.217C15.9764 55.1246 15.5458 54.8966 15.2078 54.5617C14.8699 54.2269 14.6397 53.8003 14.5464 53.3359C14.4532 52.8714 14.501 52.3901 14.684 51.9526C14.8669 51.5151 15.1766 51.1412 15.574 50.8781C15.9715 50.615 16.4387 50.4746 16.9167 50.4746C17.5576 50.4746 18.1723 50.7268 18.6255 51.1758C19.0787 51.6248 19.3333 52.2338 19.3333 52.8688ZM9.66667 43.292C9.66667 43.7655 9.52493 44.2284 9.25939 44.6221C8.99384 45.0158 8.61641 45.3227 8.17482 45.5039C7.73323 45.6851 7.24732 45.7326 6.77853 45.6402C6.30975 45.5478 5.87914 45.3198 5.54116 44.9849C5.20318 44.6501 4.97302 44.2235 4.87977 43.7591C4.78652 43.2946 4.83438 42.8132 5.01729 42.3758C5.2002 41.9383 5.50995 41.5643 5.90737 41.3013C6.30479 41.0382 6.77203 40.8978 7.25 40.8978C7.89094 40.8978 8.50563 41.15 8.95884 41.599C9.41206 42.048 9.66667 42.657 9.66667 43.292ZM4.83333 28.9267C4.83333 29.4003 4.6916 29.8632 4.42605 30.2569C4.16051 30.6506 3.78307 30.9575 3.34149 31.1387C2.8999 31.3199 2.41399 31.3673 1.9452 31.2749C1.47641 31.1826 1.0458 30.9545 0.707826 30.6197C0.36985 30.2849 0.139684 29.8583 0.0464367 29.3938C-0.046811 28.9294 0.0010471 28.448 0.183959 28.0105C0.366871 27.573 0.676621 27.1991 1.07404 26.936C1.47146 26.673 1.9387 26.5325 2.41667 26.5325C3.05761 26.5325 3.6723 26.7848 4.12551 27.2338C4.57872 27.6828 4.83333 28.2918 4.83333 28.9267ZM9.66667 14.5615C9.66667 15.035 9.52493 15.4979 9.25939 15.8917C8.99384 16.2854 8.61641 16.5923 8.17482 16.7735C7.73323 16.9547 7.24732 17.0021 6.77853 16.9097C6.30975 16.8173 5.87914 16.5893 5.54116 16.2545C5.20318 15.9196 4.97302 15.493 4.87977 15.0286C4.78652 14.5642 4.83438 14.0828 5.01729 13.6453C5.2002 13.2078 5.50995 12.8339 5.90737 12.5708C6.30479 12.3077 6.77203 12.1673 7.25 12.1673C7.89094 12.1673 8.50563 12.4196 8.95884 12.8686C9.41206 13.3176 9.66667 13.9265 9.66667 14.5615ZM19.3333 4.9847C19.3333 5.45823 19.1916 5.92112 18.9261 6.31485C18.6605 6.70857 18.2831 7.01544 17.8415 7.19665C17.3999 7.37787 16.914 7.42528 16.4452 7.3329C15.9764 7.24052 15.5458 7.01249 15.2078 6.67766C14.8699 6.34282 14.6397 5.91621 14.5464 5.45178C14.4532 4.98735 14.501 4.50596 14.684 4.06848C14.8669 3.63099 15.1766 3.25707 15.574 2.99399C15.9715 2.73091 16.4387 2.59049 16.9167 2.59049C17.5576 2.59049 18.1723 2.84274 18.6255 3.29174C19.0787 3.74074 19.3333 4.34972 19.3333 4.9847Z" fill="#ED8B00"/>
</svg>
