<svg width="42" height="37" viewBox="0 0 42 37" fill="none" xmlns="http://www.w3.org/2000/svg">
<path d="M24.9327 15.8065L21 13.9943L24.9327 12.1821L26.7273 8.2107L28.5218 12.1821L32.4545 13.9943L28.5218 15.8065L26.7273 19.7779L24.9327 15.8065ZM5.72727 23.6336L7.52182 19.6622L11.4545 17.85L7.52182 16.0378L5.72727 12.0664L3.93273 16.0378L0 17.85L3.93273 19.6622L5.72727 23.6336ZM14.3182 13.9943L16.3991 9.34814L21 7.24677L16.3991 5.14541L14.3182 0.499268L12.2373 5.14541L7.63636 7.24677L12.2373 9.34814L14.3182 13.9943ZM6.68182 36.1647L18.1364 24.5782L25.7727 32.2897L42 13.8593L39.3082 11.141L25.7727 26.5061L18.1364 18.7946L3.81818 33.2729L6.68182 36.1647Z" fill="#D0D0D0"/>
</svg>
