<svg width="31" height="33" viewBox="0 0 31 33" fill="none" xmlns="http://www.w3.org/2000/svg">
<path d="M14.4 0.654297L5.6 14.9205H23.2L14.4 0.654297ZM14.4 6.74119L17.488 11.7502H11.296L14.4 6.74119ZM23.2 18.0907C19.216 18.0907 16 21.2768 16 25.2238C16 29.1708 19.216 32.3569 23.2 32.3569C27.184 32.3569 30.4 29.1708 30.4 25.2238C30.4 21.2768 27.184 18.0907 23.2 18.0907ZM23.2 29.1866C20.992 29.1866 19.2 27.4113 19.2 25.2238C19.2 23.0363 20.992 21.261 23.2 21.261C25.408 21.261 27.2 23.0363 27.2 25.2238C27.2 27.4113 25.408 29.1866 23.2 29.1866ZM0 31.5643H12.8V18.8833H0V31.5643ZM3.2 22.0535H9.6V28.394H3.2V22.0535Z" fill="#ED8B00"/>
</svg>
