<svg width="33" height="40" viewBox="0 0 33 40" fill="none" xmlns="http://www.w3.org/2000/svg">
<path d="M19.6467 12.2939H6.54883V15.5385H19.6467V12.2939Z" fill="#ED8B00"/>
<path d="M26.1956 18.7822H6.54883V22.0268H26.1956V18.7822Z" fill="#ED8B00"/>
<path d="M11.4442 25.2703H6.54883V28.5148H11.4442V25.2703Z" fill="#ED8B00"/>
<path d="M19.6468 5.80599L14.7351 0.939941V4.18397H3.27447C2.40602 4.18397 1.57315 4.52575 0.959069 5.13413C0.344987 5.7425 0 6.56764 0 7.42801V33.3803C0 34.2406 0.344987 35.0658 0.959069 35.6741C1.57315 36.2825 2.40602 36.6243 3.27447 36.6243H9.8234V33.3803H3.27447V7.42801H14.7351V10.672L19.6468 5.80599Z" fill="#ED8B00"/>
<path d="M13.0977 35.0024L18.0094 39.8684V36.6244H29.47C30.3384 36.6244 31.1713 36.2826 31.7854 35.6742C32.3995 35.0659 32.7445 34.2407 32.7445 33.3804V7.42811C32.7445 6.56774 32.3995 5.74261 31.7854 5.13424C31.1713 4.52586 30.3384 4.18408 29.47 4.18408H22.9211V7.42811H29.47V33.3804H18.0094V30.1363L13.0977 35.0024Z" fill="#ED8B00"/>
</svg>
