<svg width="120" height="138" viewBox="0 0 120 138" fill="none" xmlns="http://www.w3.org/2000/svg">
<g clip-path="url(#clip0_166_117)">
<path d="M0 3.53241C0 1.50441 1.56975 0 3.47427 0C5.3788 0 7.0155 1.50441 7.0155 3.53241C7.0155 5.56041 5.3788 7.13119 3.47427 7.13119C1.56975 7.13119 0 5.56041 0 3.53241Z" fill="#DCDCDC"/>
<path d="M18.8296 3.53241C18.8296 1.50441 20.4068 0 22.3039 0C24.2009 0 25.8451 1.50441 25.8451 3.53241C25.8451 5.56041 24.2084 7.13119 22.3039 7.13119C20.3993 7.13119 18.8296 5.56041 18.8296 3.53241Z" fill="#DCDCDC"/>
<path d="M37.6592 3.53241C37.6592 1.50441 39.2364 0 41.1335 0C43.0305 0 44.6747 1.50441 44.6747 3.53241C44.6747 5.56041 43.038 7.13119 41.1335 7.13119C39.2289 7.13119 37.6592 5.56041 37.6592 3.53241Z" fill="#DCDCDC"/>
<path d="M56.4888 3.53241C56.4888 1.50441 58.066 0 59.963 0C61.8601 0 63.5043 1.50441 63.5043 3.53241C63.5043 5.56041 61.8676 7.13119 59.963 7.13119C58.0585 7.13119 56.4888 5.56041 56.4888 3.53241Z" fill="#DCDCDC"/>
<path d="M75.3179 3.53241C75.3179 1.50441 76.8951 0 78.7921 0C80.6892 0 82.3334 1.50441 82.3334 3.53241C82.3334 5.56041 80.6967 7.13119 78.7921 7.13119C76.8876 7.13119 75.3179 5.56041 75.3179 3.53241Z" fill="#DCDCDC"/>
<path d="M94.1475 3.53241C94.1475 1.50441 95.7246 0 97.6217 0C99.5188 0 101.163 1.50441 101.163 3.53241C101.163 5.56041 99.5263 7.13119 97.6217 7.13119C95.7172 7.13119 94.1475 5.56041 94.1475 3.53241Z" fill="#DCDCDC"/>
<path d="M112.977 3.53241C112.977 1.50441 114.554 0 116.451 0C118.348 0 119.993 1.50441 119.993 3.53241C119.993 5.56041 118.356 7.13119 116.451 7.13119C114.547 7.13119 112.977 5.56041 112.977 3.53241Z" fill="#DCDCDC"/>
<path d="M0 36.2533C0 34.2253 1.56975 32.7209 3.47427 32.7209C5.3788 32.7209 7.0155 34.2253 7.0155 36.2533C7.0155 38.2813 5.3788 39.8521 3.47427 39.8521C1.56975 39.8521 0 38.2813 0 36.2533Z" fill="#DCDCDC"/>
<path d="M18.8296 36.2533C18.8296 34.2253 20.4068 32.7209 22.3039 32.7209C24.2009 32.7209 25.8451 34.2253 25.8451 36.2533C25.8451 38.2813 24.2084 39.8521 22.3039 39.8521C20.3993 39.8521 18.8296 38.2813 18.8296 36.2533Z" fill="#DCDCDC"/>
<path d="M37.6592 36.2533C37.6592 34.2253 39.2364 32.7209 41.1335 32.7209C43.0305 32.7209 44.6747 34.2253 44.6747 36.2533C44.6747 38.2813 43.038 39.8521 41.1335 39.8521C39.2289 39.8521 37.6592 38.2813 37.6592 36.2533Z" fill="#DCDCDC"/>
<path d="M56.4888 36.2533C56.4888 34.2253 58.066 32.7209 59.963 32.7209C61.8601 32.7209 63.5043 34.2253 63.5043 36.2533C63.5043 38.2813 61.8676 39.8521 59.963 39.8521C58.0585 39.8521 56.4888 38.2813 56.4888 36.2533Z" fill="#DCDCDC"/>
<path d="M75.3179 36.2533C75.3179 34.2253 76.8951 32.7209 78.7921 32.7209C80.6892 32.7209 82.3334 34.2253 82.3334 36.2533C82.3334 38.2813 80.6967 39.8521 78.7921 39.8521C76.8876 39.8521 75.3179 38.2813 75.3179 36.2533Z" fill="#DCDCDC"/>
<path d="M94.1475 36.2533C94.1475 34.2253 95.7246 32.7209 97.6217 32.7209C99.5188 32.7209 101.163 34.2253 101.163 36.2533C101.163 38.2813 99.5263 39.8521 97.6217 39.8521C95.7172 39.8521 94.1475 38.2813 94.1475 36.2533Z" fill="#DCDCDC"/>
<path d="M112.977 36.2533C112.977 34.2253 114.554 32.7209 116.451 32.7209C118.348 32.7209 119.993 34.2253 119.993 36.2533C119.993 38.2813 118.356 39.8521 116.451 39.8521C114.547 39.8521 112.977 38.2813 112.977 36.2533Z" fill="#DCDCDC"/>
<path d="M0 68.9668C0 66.9388 1.56975 65.4344 3.47427 65.4344C5.3788 65.4344 7.0155 66.9388 7.0155 68.9668C7.0155 70.9948 5.3788 72.5656 3.47427 72.5656C1.56975 72.5656 0 70.9948 0 68.9668Z" fill="#DCDCDC"/>
<path d="M18.8296 68.9668C18.8296 66.9388 20.4068 65.4344 22.3039 65.4344C24.2009 65.4344 25.8451 66.9388 25.8451 68.9668C25.8451 70.9948 24.2084 72.5656 22.3039 72.5656C20.3993 72.5656 18.8296 70.9948 18.8296 68.9668Z" fill="#DCDCDC"/>
<path d="M37.6592 68.9668C37.6592 66.9388 39.2364 65.4344 41.1335 65.4344C43.0305 65.4344 44.6747 66.9388 44.6747 68.9668C44.6747 70.9948 43.038 72.5656 41.1335 72.5656C39.2289 72.5656 37.6592 70.9948 37.6592 68.9668Z" fill="#DCDCDC"/>
<path d="M56.4888 68.9668C56.4888 66.9388 58.066 65.4344 59.963 65.4344C61.8601 65.4344 63.5043 66.9388 63.5043 68.9668C63.5043 70.9948 61.8676 72.5656 59.963 72.5656C58.0585 72.5656 56.4888 70.9948 56.4888 68.9668Z" fill="#DCDCDC"/>
<path d="M75.3179 68.9668C75.3179 66.9388 76.8951 65.4344 78.7921 65.4344C80.6892 65.4344 82.3334 66.9388 82.3334 68.9668C82.3334 70.9948 80.6967 72.5656 78.7921 72.5656C76.8876 72.5656 75.3179 70.9948 75.3179 68.9668Z" fill="#DCDCDC"/>
<path d="M94.1475 68.9668C94.1475 66.9388 95.7246 65.4344 97.6217 65.4344C99.5188 65.4344 101.163 66.9388 101.163 68.9668C101.163 70.9948 99.5263 72.5656 97.6217 72.5656C95.7172 72.5656 94.1475 70.9948 94.1475 68.9668Z" fill="#DCDCDC"/>
<path d="M112.977 68.9668C112.977 66.9388 114.554 65.4344 116.451 65.4344C118.348 65.4344 119.993 66.9388 119.993 68.9668C119.993 70.9948 118.356 72.5656 116.451 72.5656C114.547 72.5656 112.977 70.9948 112.977 68.9668Z" fill="#DCDCDC"/>
<path d="M0 101.688C0 99.6597 1.56975 98.1553 3.47427 98.1553C5.3788 98.1553 7.0155 99.6597 7.0155 101.688C7.0155 103.716 5.3788 105.286 3.47427 105.286C1.56975 105.286 0 103.716 0 101.688Z" fill="#DCDCDC"/>
<path d="M18.8296 101.688C18.8296 99.6597 20.4068 98.1553 22.3039 98.1553C24.2009 98.1553 25.8451 99.6597 25.8451 101.688C25.8451 103.716 24.2084 105.286 22.3039 105.286C20.3993 105.286 18.8296 103.716 18.8296 101.688Z" fill="#DCDCDC"/>
<path d="M37.6592 101.688C37.6592 99.6597 39.2364 98.1553 41.1335 98.1553C43.0305 98.1553 44.6747 99.6597 44.6747 101.688C44.6747 103.716 43.038 105.286 41.1335 105.286C39.2289 105.286 37.6592 103.716 37.6592 101.688Z" fill="#DCDCDC"/>
<path d="M56.4888 101.688C56.4888 99.6597 58.066 98.1553 59.963 98.1553C61.8601 98.1553 63.5043 99.6597 63.5043 101.688C63.5043 103.716 61.8676 105.286 59.963 105.286C58.0585 105.286 56.4888 103.716 56.4888 101.688Z" fill="#DCDCDC"/>
<path d="M75.3179 101.688C75.3179 99.6597 76.8951 98.1553 78.7921 98.1553C80.6892 98.1553 82.3334 99.6597 82.3334 101.688C82.3334 103.716 80.6967 105.286 78.7921 105.286C76.8876 105.286 75.3179 103.716 75.3179 101.688Z" fill="#DCDCDC"/>
<path d="M94.1475 101.688C94.1475 99.6597 95.7246 98.1553 97.6217 98.1553C99.5188 98.1553 101.163 99.6597 101.163 101.688C101.163 103.716 99.5263 105.286 97.6217 105.286C95.7172 105.286 94.1475 103.716 94.1475 101.688Z" fill="#DCDCDC"/>
<path d="M112.977 101.688C112.977 99.6597 114.554 98.1553 116.451 98.1553C118.348 98.1553 119.993 99.6597 119.993 101.688C119.993 103.716 118.356 105.286 116.451 105.286C114.547 105.286 112.977 103.716 112.977 101.688Z" fill="#DCDCDC"/>
<path d="M0 134.401C0 132.373 1.56975 130.869 3.47427 130.869C5.3788 130.869 7.0155 132.373 7.0155 134.401C7.0155 136.429 5.3788 138 3.47427 138C1.56975 138 0 136.429 0 134.401Z" fill="#DCDCDC"/>
<path d="M18.8296 134.401C18.8296 132.373 20.4068 130.869 22.3039 130.869C24.2009 130.869 25.8451 132.373 25.8451 134.401C25.8451 136.429 24.2084 138 22.3039 138C20.3993 138 18.8296 136.429 18.8296 134.401Z" fill="#DCDCDC"/>
<path d="M37.6592 134.401C37.6592 132.373 39.2364 130.869 41.1335 130.869C43.0305 130.869 44.6747 132.373 44.6747 134.401C44.6747 136.429 43.038 138 41.1335 138C39.2289 138 37.6592 136.429 37.6592 134.401Z" fill="#DCDCDC"/>
<path d="M56.4888 134.401C56.4888 132.373 58.066 130.869 59.963 130.869C61.8601 130.869 63.5043 132.373 63.5043 134.401C63.5043 136.429 61.8676 138 59.963 138C58.0585 138 56.4888 136.429 56.4888 134.401Z" fill="#DCDCDC"/>
<path d="M75.3179 134.401C75.3179 132.373 76.8951 130.869 78.7921 130.869C80.6892 130.869 82.3334 132.373 82.3334 134.401C82.3334 136.429 80.6967 138 78.7921 138C76.8876 138 75.3179 136.429 75.3179 134.401Z" fill="#DCDCDC"/>
<path d="M94.1475 134.401C94.1475 132.373 95.7246 130.869 97.6217 130.869C99.5188 130.869 101.163 132.373 101.163 134.401C101.163 136.429 99.5263 138 97.6217 138C95.7172 138 94.1475 136.429 94.1475 134.401Z" fill="#DCDCDC"/>
<path d="M112.977 134.401C112.977 132.373 114.554 130.869 116.451 130.869C118.348 130.869 119.993 132.373 119.993 134.401C119.993 136.429 118.356 138 116.451 138C114.547 138 112.977 136.429 112.977 134.401Z" fill="#DCDCDC"/>
</g>
<defs>
<clipPath id="clip0_166_117">
<rect width="120" height="138" fill="white"/>
</clipPath>
</defs>
</svg>
