<svg width="178" height="62" viewBox="0 0 178 62" fill="none" xmlns="http://www.w3.org/2000/svg">
<path d="M134.346 52.4383V54.1812C134.346 56.2799 133.278 57.4793 131.219 57.4793C129.159 57.4793 128.091 56.2793 128.091 54.1806V47.3595C128.091 45.2608 129.159 44.0614 131.219 44.0614C133.278 44.0614 134.346 45.2608 134.346 47.3595V48.6335H132.363V47.2281C132.363 46.2909 131.943 45.9351 131.276 45.9351C130.608 45.9351 130.189 46.2909 130.189 47.2281V54.3114C130.189 55.2486 130.608 55.5854 131.276 55.5854C131.943 55.5854 132.363 55.248 132.363 54.3114V52.4377H134.346V52.4383Z" fill="white"/>
<path d="M160.512 46.0852H159.33V55.4543H160.512C161.179 55.4543 161.58 55.1169 161.58 54.1803V47.3592C161.58 46.4221 161.179 46.0852 160.512 46.0852Z" fill="white"/>
<path d="M145.102 45.9353C144.435 45.9353 144.015 46.2911 144.015 47.2282V54.3116C144.015 55.2488 144.435 55.6046 145.102 55.6046C145.77 55.6046 146.189 55.2488 146.189 54.3116V47.2282C146.189 46.2911 145.77 45.9353 145.102 45.9353Z" fill="white"/>
<path d="M170.491 48.2942H170.464C170.469 48.184 170.449 48.0716 170.474 47.9626C171.395 43.8109 168.865 40.3772 164.587 40.1996C163.169 40.141 161.713 40.6809 160.553 41.2824C158.616 37.9299 154.836 35.6542 150.491 35.6542C144.173 35.6542 139.052 40.4648 139.052 46.3997C139.052 47.1983 139.148 47.9757 139.324 48.7245C138.749 48.9312 138.211 49.2082 137.722 49.5439V55.4557H141.174V57.3294H135.623V51.8551C135.143 52.7401 134.872 53.7418 134.872 54.8033C134.872 58.398 137.975 61.3124 141.801 61.3124H170.49C174.318 61.3124 177.42 58.398 177.42 54.8033C177.42 51.2086 174.318 48.2942 170.49 48.2942H170.491ZM148.288 54.1811C148.288 56.2798 147.162 57.4792 145.103 57.4792C143.043 57.4792 141.918 56.2798 141.918 54.1811V47.36C141.918 45.2613 143.043 44.0619 145.103 44.0619C147.162 44.0619 148.288 45.2613 148.288 47.36V54.1811ZM155.802 54.2C155.802 56.2987 154.733 57.4981 152.674 57.4981C150.615 57.4981 149.546 56.2987 149.546 54.2V44.2117H151.644V54.3309C151.644 55.268 152.064 55.6049 152.731 55.6049C153.399 55.6049 153.818 55.2674 153.818 54.3309V44.2117H155.802V54.1994V54.2ZM163.678 54.0876C163.678 56.1862 162.648 57.3294 160.55 57.3294H157.232V44.2117H160.55C162.648 44.2117 163.678 45.3548 163.678 47.4535V54.087V54.0876Z" fill="white"/>
<path d="M137.722 49.5432V44.2115H135.624V51.8544C136.122 50.9374 136.843 50.1453 137.722 49.5432Z" fill="white"/>
<g clip-path="url(#clip0_103_291)">
<path d="M102.119 40.1915C103.888 40.1915 105.491 39.4741 106.65 38.3149C107.809 37.1557 108.549 35.5547 108.549 33.785V17.3185C108.549 15.6168 107.851 13.9879 106.651 12.7886C105.478 11.6173 103.876 10.9121 102.121 10.9121C99.323 10.9145 87.0608 10.9121 85.8273 10.9121C84.13 10.9121 82.4958 11.5894 81.2963 12.7886C80.1235 13.9612 79.3975 15.5634 79.3975 17.3173H68.5254C68.5254 12.5228 70.4558 8.19438 73.5784 5.07369C76.7132 1.93965 81.0438 0.0206299 85.8261 0.0206299H102.121C106.918 0.0206299 111.248 1.95179 114.368 5.07248C117.489 8.19317 119.442 12.5216 119.442 17.3161V33.7838C119.442 38.565 117.501 42.8946 114.367 46.0286C111.232 49.1627 106.901 51.1023 102.119 51.1023V40.1902V40.1915Z" fill="white"/>
<path d="M119.441 61.5034C111.653 61.24 107.827 57.5792 104.059 53.9693C101.843 51.8488 99.6602 49.7586 96.1381 49.7586C93.1175 49.7586 90.6675 47.3092 90.6675 44.2892C90.6675 41.2693 93.1175 38.8198 96.1381 38.8198C104.013 38.8198 107.791 42.437 111.624 46.1087C113.764 48.1576 115.934 50.2356 119.441 50.5427V61.5046V61.5034Z" fill="white"/>
<path d="M39.6206 0H62.075C66.8573 0 71.1892 1.93966 74.3227 5.0737C77.4575 8.20774 79.3976 12.5374 79.3976 17.3185C79.3976 22.0997 77.4575 26.4294 74.3227 29.5634C73.2167 30.6692 71.9625 31.6256 70.5918 32.4013C72.1143 33.5908 73.5858 34.8167 75.0208 36.0973C79.6671 40.2424 83.8156 44.8634 88.0576 50.5925H74.103C72.0463 48.2535 69.9629 46.1512 67.7715 44.1958C63.6873 40.5507 59.0872 37.3087 53.4478 33.8979L53.4551 33.8857C51.8537 32.9184 50.795 31.1498 50.8266 29.1446C50.8727 26.1429 53.3458 23.7481 56.347 23.7942C57.2078 23.8088 58.1329 23.7881 59.0593 23.7699C59.9128 23.7517 60.765 23.7347 61.6574 23.7396C61.7958 23.7299 61.933 23.7238 62.0726 23.7238C63.8415 23.7238 65.4441 23.0076 66.6036 21.8485C67.763 20.6893 68.4805 19.0871 68.4805 17.3185C68.4805 15.55 67.7618 13.9478 66.6036 12.7886C65.4441 11.6294 63.8415 10.9121 62.0726 10.9121H39.6182V0H39.6206Z" fill="white"/>
<path d="M34.622 10.9121H18.4735C16.4095 10.9121 14.7353 12.5859 14.7353 14.6494C14.7353 15.6811 15.1542 16.6158 15.8304 17.2918C16.4824 17.9449 17.3772 18.3576 18.3679 18.3855H34.622V10.9133V10.9121ZM40.0611 50.595H16.1084C11.6613 50.595 7.63536 48.7913 4.71914 45.8769C1.80413 42.9614 0 38.9352 0 34.489C0 30.0428 1.80413 26.0179 4.71914 23.1023C5.07729 22.7442 5.45366 22.4032 5.84338 22.0791C4.55888 19.9003 3.8195 17.3598 3.8195 14.6482C3.82072 6.56061 10.3816 0 18.4735 0H45.5779V10.9121H45.5014V50.595H40.0611ZM18.2768 29.2964H16.1097C14.6758 29.2964 13.3768 29.8778 12.4371 30.8173C11.4986 31.7567 10.9158 33.0555 10.9158 34.489C10.9158 35.9225 11.4986 37.2225 12.4371 38.1608C13.3768 39.1003 14.6758 39.6817 16.1097 39.6817H34.6232V29.2976H18.4735C18.4067 29.2976 18.3424 29.2976 18.2768 29.2964Z" fill="white"/>
</g>
<defs>
<clipPath id="clip0_103_291">
<rect width="119.441" height="61.5034" fill="white"/>
</clipPath>
</defs>
</svg>
