<svg width="47" height="82" viewBox="0 0 47 82" fill="none" xmlns="http://www.w3.org/2000/svg">
<path d="M46.7092 19.8735C46.1407 16.2343 44.7248 12.7797 42.5756 9.78835C40.4264 6.79702 37.6042 4.35275 34.3367 2.65275C31.0691 0.95274 27.4477 0.0446025 23.7646 0.00160177C20.0815 -0.0413989 16.4399 0.781941 13.1335 2.40519C11.903 3.05268 10.7267 3.79822 9.61585 4.63458C9.17144 4.95073 8.71233 5.2775 8.25566 5.58548C8.11451 5.67038 7.99277 5.78399 7.89834 5.91895C7.80391 6.05391 7.73889 6.20722 7.70751 6.36892C7.68844 6.52211 7.70186 6.6776 7.7469 6.82525C7.79195 6.9729 7.8676 7.10941 7.96892 7.22587C8.214 7.53712 8.75889 7.9611 9.6134 7.28387C9.66241 7.24548 9.70979 7.20218 9.75799 7.16624L9.86419 7.07882C12.2549 5.0759 15.0598 3.62775 18.0772 2.83856C21.0946 2.04936 24.2493 1.93875 27.3145 2.51466C38.2907 4.39359 46.2182 15.2146 44.6244 26.1516C43.4039 34.5291 38.7278 40.371 30.7285 43.5161C29.2065 44.115 28.9182 44.5324 28.9157 46.145C28.9157 46.9227 28.9157 47.7004 28.9157 48.4782C28.9157 49.9078 28.9157 51.3864 28.9067 52.8389C28.9206 53.4091 28.8702 53.9792 28.7564 54.5381C28.4642 55.8197 27.7139 56.9504 26.6465 57.7176C25.5792 58.4848 24.2683 58.8357 22.9604 58.7043C21.6525 58.5728 20.4376 57.9681 19.5443 57.0038C18.651 56.0395 18.1407 54.7821 18.1094 53.4679C18.0539 50.9575 18.058 48.2192 18.1225 44.8477C18.1928 42.3297 19.0498 39.8969 20.5733 37.8908C22.2727 35.6804 24.6042 34.0391 27.2582 33.1845C29.029 32.4953 30.578 31.3355 31.7378 29.8302C32.8977 28.325 33.6243 26.5315 33.8393 24.6435C34.0542 22.7554 33.7494 20.8445 32.9576 19.1171C32.1658 17.3896 30.9173 15.9113 29.3466 14.8416C27.776 13.772 25.9431 13.1517 24.0457 13.0477C22.1483 12.9437 20.2585 13.36 18.5804 14.2517C16.9023 15.1433 15.4997 16.4764 14.5239 18.1069C13.5481 19.7375 13.0363 21.6037 13.0437 23.5039C13.0169 24.8632 12.4888 26.1645 11.5608 27.1581C10.6329 28.1516 9.37054 28.7672 8.01631 28.8866C6.67249 28.9954 5.33712 28.5931 4.27699 27.7602C3.21687 26.9272 2.51008 25.725 2.29783 24.3936C1.98455 22.0526 2.25278 19.6705 3.07881 17.4579C3.48526 16.3305 3.95492 15.227 4.48555 14.1526C4.79925 13.486 5.12357 12.7973 5.41358 12.1054C5.57422 11.6618 5.55486 11.173 5.35966 10.7436C5.17586 10.3645 4.37935 10.4258 4.12529 10.4895C3.82793 10.5638 3.63513 10.8808 3.484 11.1357L3.44888 11.1937C1.16361 14.8949 -0.0315508 19.1656 0.000633273 23.5154C0.00468689 25.412 0.718004 27.2385 2.00038 28.636C3.28275 30.0334 5.04144 30.9006 6.93075 31.0672C8.82006 31.2338 10.7034 30.6876 12.2105 29.5362C13.7176 28.3847 14.7395 26.7112 15.0754 24.8445C15.1598 24.3376 15.2168 23.8266 15.2461 23.3136C15.2755 22.9182 15.3065 22.5081 15.3637 22.1152C15.5425 21.0415 15.9314 20.0138 16.5082 19.0908C17.0849 18.1677 17.8382 17.3676 18.7248 16.7363C19.6113 16.1049 20.6138 15.6548 21.6747 15.4116C22.7356 15.1684 23.834 15.137 24.9071 15.3191C26.0473 15.5358 27.1316 15.9819 28.0941 16.6304C29.0566 17.2789 29.8773 18.1163 30.5063 19.0917C31.096 20.0027 31.4917 21.0256 31.6685 22.0963C31.8453 23.1671 31.7995 24.2628 31.534 25.315C30.7709 28.3418 28.8585 30.3285 25.5148 31.5662C23.3092 32.318 21.3292 33.6146 19.7583 35.3358C18.1874 37.0569 17.0765 39.1468 16.5287 41.4117C16.0519 43.8811 15.8622 46.3974 15.9634 48.9103C15.9634 49.4609 15.9511 50.0238 15.9397 50.5678C15.8924 51.7957 15.9088 53.0252 15.9887 54.2514C16.0873 55.2323 16.3859 56.1827 16.8662 57.0437C17.3464 57.9047 17.9981 58.6582 18.7809 59.2575C20.104 60.3151 21.7436 60.8985 23.4374 60.9142C23.7859 60.9137 24.1339 60.8864 24.4782 60.8325C28.5293 60.2035 31.0765 57.207 31.1247 53.0121C31.15 50.7868 31.1688 48.6121 31.1132 46.4685C31.0977 45.8583 31.2513 45.641 31.8607 45.4065C36.8881 43.4962 41.1069 39.9174 43.8114 35.2688C46.5159 30.6203 47.5421 25.184 46.7182 19.8694" fill="#ED8B00"/>
<path d="M31.0497 73.2685C30.9435 72.7449 30.834 72.2065 30.7164 71.6714C30.6891 71.4951 30.6261 71.3262 30.5311 71.1752C30.4361 71.0242 30.3112 70.8942 30.1641 70.7933C30.0315 70.7188 29.8847 70.673 29.7333 70.659C29.5819 70.6449 29.4292 70.6628 29.2851 70.7116C28.3661 70.9697 28.5205 71.7736 28.6128 72.2572L28.6479 72.441C28.801 73.0876 28.8753 73.7503 28.8693 74.4147C28.8448 75.4096 28.5273 76.3751 27.9567 77.1905C27.386 78.0058 26.5876 78.6347 25.6612 78.9985C24.7429 79.3999 23.7311 79.5381 22.7387 79.3976C21.7464 79.257 20.8127 78.8433 20.042 78.2026C19.2713 77.5619 18.6939 76.7195 18.3744 75.7695C18.055 74.8196 18.006 73.7995 18.2329 72.8233C18.8685 70.0033 21.2556 68.4283 24.4644 68.7093C24.917 68.7493 25.8589 68.8318 25.9692 67.7878C26.0419 67.1048 25.6424 66.6866 24.7847 66.5444C23.7483 66.3778 22.689 66.4232 21.6707 66.6778C20.6524 66.9323 19.6963 67.3908 18.8603 68.0255C18.0611 68.6139 17.3915 69.3605 16.8931 70.2188C16.3948 71.077 16.0783 72.0287 15.9635 73.0145C15.8276 74.0765 15.9118 75.1552 16.2108 76.1833C16.5099 77.2114 17.0175 78.1669 17.7019 78.9903C18.3861 79.7865 19.2268 80.4333 20.1719 80.8904C21.1169 81.3475 22.146 81.605 23.1949 81.6469C23.33 81.654 23.4645 81.6575 23.5985 81.6575C25.49 81.6513 27.3078 80.9238 28.6814 79.6234C29.4542 78.903 30.0747 78.0349 30.5062 77.0705C30.9376 76.1061 31.1713 75.065 31.1935 74.0087V73.9793L31.1877 73.9507C31.1409 73.723 31.0946 73.4951 31.0489 73.2669" fill="#ED8B00"/>
<path d="M6.53565 9.87445H6.56424C6.87872 9.82327 7.16307 9.65737 7.36238 9.4088C7.44483 9.32828 7.53126 9.25194 7.62135 9.18006L7.73081 9.09837L7.71121 8.46934L7.5854 8.39418C7.49554 8.34108 7.40486 8.27572 7.30846 8.20628C7.07938 8.0115 6.80627 7.8755 6.51278 7.81008C6.35773 7.78459 6.19878 7.79831 6.05039 7.84996C5.902 7.90161 5.76889 7.98956 5.66318 8.1058C5.56688 8.21893 5.50092 8.35467 5.47148 8.50028C5.44205 8.6459 5.4501 8.7966 5.49489 8.93825C5.57291 9.17091 5.7096 9.37953 5.89177 9.54395C6.07393 9.70838 6.29542 9.82305 6.53483 9.8769" fill="#ED8B00"/>
<path d="M27.6884 70.1201C27.7208 70.1261 27.7536 70.1291 27.7865 70.1291C28.0744 70.0847 28.3402 69.9486 28.5446 69.741C28.6322 69.6685 28.7236 69.6007 28.8182 69.5376L28.9424 69.4559V68.8203L28.837 68.7386C28.7517 68.6693 28.6699 68.5957 28.592 68.5181C28.3469 68.2836 28.0912 68.0418 27.7914 68.0859C27.479 68.1726 27.2034 68.3587 27.0063 68.6161C26.9246 68.7035 26.8429 68.7868 26.7612 68.8546L26.5488 69.036L26.74 69.2402C26.8103 69.3154 26.8813 69.4094 26.9565 69.5082C27.1181 69.7945 27.38 70.0107 27.6917 70.1152" fill="#ED8B00"/>
</svg>
