<svg width="104" height="53" viewBox="0 0 104 53" fill="none" xmlns="http://www.w3.org/2000/svg">
<g clip-path="url(#clip0_96_187)">
<path d="M88.9172 34.6344C90.4574 34.6344 91.8528 34.0162 92.8624 33.0173C93.8719 32.0184 94.5157 30.6388 94.5157 29.1137V14.9239C94.5157 13.4574 93.9079 12.0537 92.8634 11.0203C91.8422 10.0109 90.4468 9.40319 88.9193 9.40319C86.4826 9.40528 75.8056 9.40319 74.7316 9.40319C73.2537 9.40319 71.8308 9.98685 70.7864 11.0203C69.7652 12.0307 69.1331 13.4114 69.1331 14.9228H59.6665C59.6665 10.7912 61.3473 7.06123 64.0663 4.37201C66.7958 1.67128 70.5665 0.0175781 74.7305 0.0175781H88.9193C93.096 0.0175781 96.8657 1.68174 99.5825 4.37096C102.3 7.06019 104 10.7902 104 14.9218V29.1127C104 33.2328 102.311 36.9638 99.5815 39.6645C96.852 42.3653 93.0812 44.0368 88.9172 44.0368V34.6334V34.6344Z" fill="white"/>
<path d="M104 53C97.2187 52.773 93.8877 49.6183 90.6064 46.5076C88.6771 44.6802 86.7764 42.879 83.7097 42.879C81.0796 42.879 78.9463 40.7682 78.9463 38.1658C78.9463 35.5634 81.0796 33.4526 83.7097 33.4526C90.5662 33.4526 93.856 36.5697 97.1933 39.7338C99.057 41.4994 100.946 43.2901 104 43.5547V53.001V53Z" fill="white"/>
<path d="M34.4982 0H54.0497C58.2138 0 61.9856 1.67148 64.714 4.37221C67.4435 7.07294 69.1328 10.804 69.1328 14.9241C69.1328 19.0442 67.4435 22.7752 64.714 25.476C63.751 26.4289 62.659 27.2531 61.4655 27.9215C62.7911 28.9466 64.0723 30.003 65.3219 31.1065C69.3675 34.6785 72.9797 38.6606 76.6733 43.5976H64.5227C62.7319 41.582 60.9179 39.7704 59.0098 38.0853C55.4536 34.9442 51.4482 32.1504 46.5378 29.2112L46.5442 29.2007C45.1498 28.3671 44.228 26.8431 44.2555 25.1151C44.2956 22.5284 46.449 20.4647 49.0622 20.5044C49.8117 20.517 50.6173 20.4992 51.4238 20.4835C52.167 20.4678 52.9091 20.4532 53.6861 20.4573C53.8066 20.449 53.9261 20.4438 54.0476 20.4438C55.5879 20.4438 56.9833 19.8266 57.9928 18.8277C59.0024 17.8288 59.6271 16.4481 59.6271 14.9241C59.6271 13.4001 59.0013 12.0194 57.9928 11.0205C56.9833 10.0216 55.5879 9.40339 54.0476 9.40339H34.4961V0H34.4982Z" fill="white"/>
<path d="M30.146 9.40339H16.0852C14.2881 9.40339 12.8303 10.8458 12.8303 12.624C12.8303 13.5131 13.195 14.3185 13.7839 14.9011C14.3515 15.4638 15.1306 15.8195 15.9933 15.8435H30.146V9.40444V9.40339ZM34.882 43.5997H14.0259C10.1537 43.5997 6.64826 42.0454 4.10905 39.534C1.57089 37.0215 0 33.552 0 29.7206C0 25.8891 1.57089 22.4207 4.10905 19.9082C4.4209 19.5996 4.74861 19.3057 5.08794 19.0264C3.96951 17.1489 3.32572 14.9597 3.32572 12.6229C3.32677 5.65354 9.03948 0 16.0852 0H39.6855V9.40339H39.6189V43.5997H34.882ZM15.914 25.2459H14.027C12.7785 25.2459 11.6474 25.7469 10.8292 26.5565C10.012 27.3661 9.50462 28.4853 9.50462 29.7206C9.50462 30.9559 10.012 32.0761 10.8292 32.8847C11.6474 33.6943 12.7785 34.1953 14.027 34.1953H30.1471V25.2469H16.0852C16.0271 25.2469 15.9711 25.2469 15.914 25.2459Z" fill="white"/>
</g>
<defs>
<clipPath id="clip0_96_187">
<rect width="104" height="53" fill="white"/>
</clipPath>
</defs>
</svg>
