<svg width="110" height="31" viewBox="0 0 110 31" fill="none" xmlns="http://www.w3.org/2000/svg">
<g clip-path="url(#clip0_1163_7)">
<path fill-rule="evenodd" clip-rule="evenodd" d="M13.8453 23.7153H1.6609C1.19859 23.7153 0.784939 23.9046 0.480786 24.216C0.182716 24.5213 -0.00585938 24.9487 -0.00585938 25.4188V28.3373C-0.00585938 28.8074 0.176632 29.2287 0.474702 29.534C0.778856 29.8454 1.1925 30.0346 1.65482 30.0346H13.8453V23.7153ZM34.7588 24.216C34.4608 23.9046 34.041 23.7153 33.5787 23.7153H21.3944V30.0346H33.5787C34.041 30.0346 34.4608 29.8454 34.7588 29.534C35.0569 29.2287 35.2394 28.8074 35.2394 28.3373V25.4188C35.2394 24.9548 35.0569 24.5274 34.7588 24.2221V24.216ZM34.7588 12.8473C34.4608 12.536 34.041 12.3406 33.5787 12.3406H21.3944V18.6599H33.5787C34.041 18.6599 34.4608 18.4645 34.7588 18.1531C35.0569 17.8478 35.2394 17.4265 35.2394 16.9564V14.0379C35.2394 13.5739 35.0569 13.1526 34.7588 12.8412V12.8473ZM13.8453 12.3406H1.6609C1.19859 12.3406 0.784939 12.5298 0.480786 12.8412C0.182716 13.1465 -0.00585938 13.5739 -0.00585938 14.0379V16.9564C-0.00585938 17.4204 0.176632 17.8478 0.474702 18.1531C0.778856 18.4645 1.1925 18.6538 1.65482 18.6538H13.8453V12.3345V12.3406ZM33.5483 7.29123H1.69131C1.22292 7.29123 0.797105 7.10196 0.486869 6.79057C0.182716 6.48529 -0.00585938 6.06401 -0.00585938 5.59387V2.66929C-0.00585938 2.19915 0.182716 1.77787 0.486869 1.46648C0.797105 1.15509 1.21684 0.96582 1.68523 0.96582H33.5483C34.0167 0.96582 34.4425 1.15509 34.7528 1.46648C35.0569 1.77176 35.2455 2.19305 35.2455 2.66318V5.58777C35.2455 6.05179 35.0569 6.47919 34.7528 6.78447C34.4425 7.09585 34.0228 7.28513 33.5483 7.28513V7.29123Z" fill="#939393"/>
<path fill-rule="evenodd" clip-rule="evenodd" d="M107.293 0.97168H105.383C102.944 0.97168 102.792 1.24033 102.603 1.66772L98.8255 10.8872C97.5663 13.9461 96.2706 17.2431 95.7718 18.9466C95.3155 17.2431 94.4761 14.9535 92.7181 10.7346L88.9405 1.66772C88.7154 1.13043 87.7664 0.97168 85.7043 0.97168H83.5691C81.4705 0.97168 81.0508 1.16706 81.0508 1.59445V29.4116C81.0508 29.9184 81.4705 30.0344 83.6421 30.0344H84.8222C86.9574 30.0344 87.5657 29.9184 87.5657 29.4116V12.9081H87.7178C87.7178 12.9081 87.9064 13.6836 88.2166 14.3796L92.566 24.7225C92.7546 25.1865 92.9857 25.3819 95.0053 25.3819H96.301C98.3571 25.3819 98.5152 25.2232 98.7038 24.7225L102.67 14.7643C103.053 13.8362 103.321 12.902 103.321 12.902H103.473V29.4055C103.473 29.9123 103.893 30.0283 106.143 30.0283H107.287C109.386 30.0283 109.994 29.9123 109.994 29.4055V1.59445C110 1.16706 109.392 0.97168 107.293 0.97168ZM74.7548 1.59445C74.7548 1.16706 74.1647 0.97168 72.1451 0.97168H70.965C68.8299 0.97168 68.4649 1.16706 68.4649 1.59445V29.4116C68.4649 29.9184 68.8299 30.0344 70.965 30.0344H72.1451C74.1708 30.0344 74.7609 29.9184 74.7609 29.4116V1.59445H74.7548ZM63.9817 0.97168C64.5657 0.97168 64.6873 1.05105 64.6873 3.10254V5.00138C64.6873 6.9796 64.5292 7.21161 63.9817 7.21161H57.3329V29.4116C57.3329 29.9184 56.7063 30.0344 54.4799 30.0344H53.3059C51.0369 30.0344 50.6476 29.9184 50.6476 29.4116V7.21161H43.9988C43.4513 7.21161 43.2932 7.05897 43.2932 5.00138V3.10254C43.2871 0.97168 43.4088 0.97168 43.9927 0.97168H63.9817Z" fill="#7B7B7B"/>
</g>
<defs>
<clipPath id="clip0_1163_7">
<rect width="110" height="29.0566" fill="white" transform="translate(0 0.97168)"/>
</clipPath>
</defs>
</svg>
