<svg width="69" height="51" viewBox="0 0 69 51" fill="none" xmlns="http://www.w3.org/2000/svg">
<path d="M61.3561 11.895C60.2749 11.895 59.2535 12.1638 58.3963 12.636C57.3693 13.2016 56.5803 14.0596 56.2129 15.0931L47.3794 38.0203L52.4293 50.3683C52.4293 50.3683 52.5824 50.3642 52.5852 50.3642C52.6311 50.3614 52.677 50.3572 52.7216 50.3516C52.7229 50.3516 52.7257 50.3516 52.7271 50.3516C52.7327 50.3516 52.7355 50.3488 52.7382 50.3488C52.7967 50.3419 52.8538 50.3335 52.9108 50.3224C53.4062 50.2249 53.8376 49.9811 54.1131 49.6413C54.2105 49.5215 54.2884 49.3905 54.3427 49.2498L68.9999 11.895H61.3575H61.3561Z" fill="#D0D0D0"/>
<path d="M0 15.0942V23.4656L0.502349 23.6968L8.18092 27.2348V18.8634L0 15.0942Z" fill="#D0D0D0"/>
<path d="M52.7105 50.3431C52.6437 50.3278 52.3445 50.0088 51.9271 48.9571C51.5848 48.0949 47.9834 38.2067 47.9834 38.2067V38.2039L46.5293 34.2272L42.5578 23.3626C41.6992 21.1716 39.886 19.3677 37.8028 17.9721C38.3455 17.5403 38.923 17.0054 39.4435 16.3605C39.4463 16.3577 39.4477 16.3549 39.4504 16.3521C39.4518 16.3493 39.4546 16.3465 39.4574 16.3438C40.4315 15.1319 41.2107 13.5357 41.2107 11.5215C41.2107 9.07559 40.5066 6.92495 39.1332 5.19079C36.8218 2.27684 32.6179 0.537109 26.6774 0.537109H7.79407V15.0929H0V23.4657H7.79407V27.058V38.5076H27.6376C29.4466 38.5076 31.1554 38.3126 32.7167 37.9282C32.7167 37.9282 32.7181 37.9282 32.7195 37.9282C32.7265 37.9268 32.7334 37.9254 32.7404 37.9226C34.0944 37.5869 35.3384 37.1105 36.4433 36.4963H36.4447L40.9491 47.8637C40.9853 47.9557 41.0271 48.0462 41.0702 48.1353C41.2247 48.4404 41.4237 48.7217 41.663 48.9739C42.0888 49.4266 42.6371 49.7873 43.2591 50.0297C43.3955 50.0826 43.536 50.13 43.6807 50.1718C44.133 50.3013 44.6145 50.3723 45.1113 50.3723H52.3821C52.3821 50.3723 52.4851 50.3682 52.5435 50.3682C52.6395 50.3682 52.7592 50.3487 52.7564 50.3487C52.7342 50.3487 52.723 50.3487 52.7077 50.3459M18.996 8.90984H25.9733C29.0458 8.90984 30.006 10.5089 30.006 12.0021C30.006 13.4953 29.05 15.0846 25.9969 15.0943H18.9947V8.90984H18.996ZM26.5494 30.1349H18.996V23.4684H26.2975C27.1464 23.4712 27.9646 23.6119 28.7258 23.8585C30.1257 24.4532 30.6461 25.64 30.6461 26.7752C30.6461 28.3756 29.6219 30.1349 26.5494 30.1349Z" fill="#B5B5B5"/>
<path d="M11.5973 46.4097C11.9285 46.8304 12.0941 47.3722 12.0941 48.0366C12.0941 48.7011 11.9313 49.2972 11.6029 49.7499C11.2759 50.2026 10.8195 50.4297 10.2336 50.4297C9.86626 50.4297 9.56985 50.3558 9.34721 50.2096C9.21362 50.1232 9.0689 49.9714 8.91443 49.7541V50.3113H7.77197V44.3218H8.93113V46.4543C9.07864 46.2482 9.24006 46.0908 9.41818 45.9821C9.6283 45.847 9.89548 45.7788 10.2197 45.7788C10.8056 45.7788 11.2648 45.9891 11.596 46.4097M10.6274 49.112C10.7944 48.871 10.8779 48.5534 10.8779 48.1592C10.8779 47.8444 10.8376 47.584 10.7555 47.3778C10.5996 46.9864 10.3129 46.7914 9.89409 46.7914C9.47523 46.7914 9.17883 46.9822 9.02019 47.3653C8.93809 47.5686 8.89774 47.8319 8.89774 48.155C8.89774 48.5353 8.98262 48.8501 9.15239 49.0994C9.32216 49.3488 9.5796 49.4741 9.92748 49.4741C10.2281 49.4741 10.4618 49.3529 10.6288 49.112" fill="#B5B5B5"/>
<path d="M14.4471 47.6128C14.6628 47.5863 14.8173 47.5515 14.9105 47.5111C15.0775 47.44 15.161 47.33 15.161 47.181C15.161 46.9985 15.097 46.8731 14.969 46.8049C14.8409 46.7352 14.6545 46.7018 14.4068 46.7018C14.1299 46.7018 13.9323 46.7701 13.8182 46.9052C13.7361 47.0055 13.6804 47.142 13.654 47.3119H12.5365C12.5602 46.9233 12.6701 46.6057 12.8636 46.355C13.1711 45.9636 13.6999 45.7686 14.4471 45.7686C14.9342 45.7686 15.367 45.8647 15.7455 46.0569C16.124 46.2491 16.3132 46.6127 16.3132 47.1475V49.1826C16.3132 49.3232 16.316 49.4946 16.3216 49.6951C16.3299 49.847 16.3522 49.95 16.3911 50.0044C16.4287 50.0587 16.4858 50.1033 16.5623 50.1381V50.3094H15.3016C15.2668 50.2203 15.2417 50.1353 15.2292 50.0573C15.2153 49.9793 15.2055 49.8888 15.1972 49.7885C15.0372 49.9626 14.8507 50.1102 14.642 50.2314C14.3915 50.3749 14.1076 50.4473 13.7917 50.4473C13.3882 50.4473 13.0542 50.3331 12.7912 50.1033C12.5282 49.8734 12.396 49.5489 12.396 49.1282C12.396 48.5836 12.6075 48.188 13.0305 47.9443C13.2629 47.8119 13.6039 47.7158 14.0547 47.6587L14.4513 47.61L14.4471 47.6128ZM15.1554 48.1532C15.0817 48.1992 15.0065 48.2368 14.9314 48.2646C14.8563 48.2925 14.7519 48.319 14.6197 48.344L14.3553 48.3928C14.1076 48.436 13.9309 48.4889 13.8223 48.5516C13.64 48.6574 13.5482 48.8218 13.5482 49.0447C13.5482 49.2424 13.6039 49.3859 13.7152 49.4737C13.8265 49.5614 13.9629 49.606 14.1215 49.606C14.3748 49.606 14.6086 49.5322 14.8215 49.3859C15.0344 49.2397 15.1457 48.9722 15.154 48.585V48.1532H15.1554Z" fill="#B5B5B5"/>
<path d="M20.6868 46.1293C20.9762 46.3689 21.1224 46.7673 21.1224 47.323V50.3094H19.9354V47.6114C19.9354 47.3787 19.9048 47.1991 19.8421 47.0751C19.7294 46.8467 19.5137 46.7324 19.1965 46.7324C18.8068 46.7324 18.5383 46.8996 18.3935 47.2339C18.3184 47.4094 18.2808 47.635 18.2808 47.9094V50.3108H17.123V45.8828H18.2446V46.5305C18.3935 46.302 18.5341 46.1377 18.6663 46.0374C18.9042 45.8577 19.2048 45.7686 19.5694 45.7686C20.0258 45.7686 20.3988 45.8883 20.6882 46.1293" fill="#B5B5B5"/>
<path d="M24.6415 47.4665C24.6207 47.3007 24.5636 47.1517 24.4746 47.0194C24.3438 46.8397 24.142 46.7505 23.8678 46.7505C23.4768 46.7505 23.2096 46.9442 23.0649 47.3328C22.9884 47.5389 22.9508 47.8119 22.9508 48.1532C22.9508 48.4945 22.9884 48.7396 23.0649 48.936C23.2027 49.3051 23.4643 49.489 23.847 49.489C24.1183 49.489 24.3117 49.4152 24.4259 49.2689C24.54 49.1227 24.6095 48.9332 24.6332 48.6992H25.816C25.7896 49.0516 25.6615 49.3859 25.4333 49.7007C25.0701 50.2077 24.5316 50.4612 23.8177 50.4612C23.1039 50.4612 22.5793 50.2495 22.2439 49.8261C21.9071 49.4026 21.7388 48.8538 21.7388 48.1797C21.7388 47.4191 21.9252 46.8272 22.2954 46.4037C22.6669 45.9803 23.1804 45.7686 23.8331 45.7686C24.3897 45.7686 24.8447 45.8939 25.1982 46.1432C25.5516 46.3926 25.7617 46.8341 25.8271 47.4651H24.6402L24.6415 47.4665Z" fill="#B5B5B5"/>
<path d="M30.1074 49.7691C29.7331 50.2316 29.1654 50.4628 28.4042 50.4628C27.643 50.4628 27.0753 50.2316 26.7009 49.7691C26.3266 49.3067 26.1401 48.7509 26.1401 48.1004C26.1401 47.4499 26.3266 46.9067 26.7009 46.4373C27.0753 45.9679 27.643 45.7339 28.4042 45.7339C29.1654 45.7339 29.7331 45.9679 30.1074 46.4373C30.4818 46.9067 30.6682 47.4597 30.6682 48.1004C30.6682 48.7412 30.4818 49.3067 30.1074 49.7691ZM29.1807 49.1284C29.3616 48.8874 29.4534 48.5448 29.4534 48.1004C29.4534 47.6561 29.363 47.3148 29.1807 47.0752C28.9998 46.8357 28.7382 46.7159 28.4 46.7159C28.0619 46.7159 27.8003 46.8357 27.618 47.0752C27.4357 47.3148 27.3438 47.6561 27.3438 48.1004C27.3438 48.5448 27.4357 48.8874 27.618 49.1284C27.8003 49.3694 28.0619 49.4905 28.4 49.4905C28.7382 49.4905 28.9984 49.3708 29.1807 49.1284Z" fill="#B5B5B5"/>
</svg>
