<svg width="116" height="60" viewBox="0 0 116 60" fill="none" xmlns="http://www.w3.org/2000/svg">
<g clip-path="url(#clip0_1113_669)">
<path d="M99.1765 39.209C100.894 39.209 102.451 38.5092 103.577 37.3783C104.703 36.2475 105.421 34.6856 105.421 32.9592V16.8952C105.421 15.2351 104.743 13.646 103.578 12.476C102.439 11.3333 100.883 10.6454 99.1789 10.6454C96.4611 10.6477 84.5521 10.6454 83.3542 10.6454C81.7058 10.6454 80.1187 11.3061 78.9537 12.476C77.8147 13.6199 77.1096 15.183 77.1096 16.894H66.5508C66.5508 12.2167 68.4256 7.99409 71.4582 4.94969C74.5026 1.89226 78.7085 0.0201416 83.353 0.0201416H99.1789C103.838 0.0201416 108.042 1.9041 111.072 4.9485C114.104 7.99291 116 12.2155 116 16.8928V32.958C116 37.6223 114.116 41.8461 111.071 44.9035C108.027 47.9609 103.821 49.8532 99.1765 49.8532V39.2078V39.209Z" fill="white"/>
<path d="M116 60C108.436 59.743 104.721 56.1717 101.061 52.6501C98.9088 50.5814 96.7888 48.5423 93.3682 48.5423C90.4346 48.5423 88.0552 46.1527 88.0552 43.2066C88.0552 40.2605 90.4346 37.8709 93.3682 37.8709C101.016 37.8709 104.685 41.3996 108.408 44.9816C110.486 46.9804 112.593 49.0077 116 49.3073V60.0012V60Z" fill="white"/>
<path d="M38.4789 0H60.2864C64.9309 0 69.1379 1.89224 72.1812 4.94967C75.2256 8.0071 77.1098 12.2309 77.1098 16.8952C77.1098 21.5595 75.2256 25.7833 72.1812 28.8407C71.107 29.9195 69.889 30.8526 68.5578 31.6092C70.0364 32.7697 71.4655 33.9657 72.8592 35.2149C77.3716 39.2587 81.4006 43.7667 85.5204 49.3558H71.9678C69.9704 47.074 67.947 45.0231 65.8187 43.1155C61.8523 39.5595 57.3846 36.3967 51.9077 33.0693L51.9148 33.0574C50.3595 32.1137 49.3314 30.3884 49.362 28.4322C49.4068 25.5038 51.8087 23.1676 54.7234 23.2126C55.5594 23.2268 56.4579 23.2066 57.3575 23.1889C58.1864 23.1711 59.0142 23.1545 59.8808 23.1593C60.0152 23.1498 60.1484 23.1439 60.284 23.1439C62.002 23.1439 63.5584 22.4452 64.6845 21.3144C65.8105 20.1835 66.5073 18.6205 66.5073 16.8952C66.5073 15.1699 65.8093 13.6069 64.6845 12.476C63.5584 11.3452 62.002 10.6454 60.284 10.6454H38.4766V0H38.4789Z" fill="white"/>
<path d="M33.6244 10.6454H17.9412C15.9367 10.6454 14.3108 12.2783 14.3108 14.2913C14.3108 15.2978 14.7175 16.2096 15.3743 16.8692C16.0075 17.5062 16.8765 17.9088 17.8386 17.9361H33.6244V10.6465V10.6454ZM38.9068 49.3582H15.6443C11.3253 49.3582 7.41537 47.5986 4.58317 44.7555C1.75214 41.9112 0 37.9834 0 33.6459C0 29.3085 1.75214 25.3819 4.58317 22.5376C4.931 22.1883 5.29652 21.8555 5.67502 21.5394C4.42753 19.4139 3.70945 16.9355 3.70945 14.2901C3.71063 6.40024 10.0825 0 17.9412 0H44.2646V10.6454H44.1904V49.3582H38.9068V49.3582ZM17.7502 28.5802H15.6455C14.253 28.5802 12.9913 29.1474 12.0787 30.0639C11.1673 30.9805 10.6013 32.2475 10.6013 33.6459C10.6013 35.0444 11.1673 36.3126 12.0787 37.2279C12.9913 38.1445 14.253 38.7117 15.6455 38.7117H33.6256V28.5814H17.9412C17.8764 28.5814 17.8139 28.5814 17.7502 28.5802V28.5802Z" fill="white"/>
</g>
<defs>
<clipPath id="clip0_1113_669">
<rect width="116" height="60" fill="white"/>
</clipPath>
</defs>
</svg>
