<svg width="41" height="37" viewBox="0 0 41 37" fill="none" xmlns="http://www.w3.org/2000/svg">
<path d="M37.2727 0.499268H3.72727C2.73874 0.499268 1.79069 0.875027 1.09169 1.54388C0.392694 2.21274 0 3.1199 0 4.06581V25.465C0 26.4109 0.392694 27.3181 1.09169 27.987C1.79069 28.6558 2.73874 29.0316 3.72727 29.0316H16.7727V32.5981H13.0455V36.1647H27.9545V32.5981H24.2273V29.0316H37.2727C38.2613 29.0316 39.2093 28.6558 39.9083 27.987C40.6073 27.3181 41 26.4109 41 25.465V4.06581C41 3.1199 40.6073 2.21274 39.9083 1.54388C39.2093 0.875027 38.2613 0.499268 37.2727 0.499268ZM37.2727 12.9822H24.2273V16.5487H37.2727V25.465H3.72727V16.5487H13.0455V21.8985L20.5 14.7654L13.0455 7.63235V12.9822H3.72727V4.06581H37.2727V12.9822Z" fill="#D0D0D0"/>
</svg>
