<svg width="43" height="35" viewBox="0 0 43 35" fill="none" xmlns="http://www.w3.org/2000/svg">
<path d="M5.8236 29.0575H36.8811C39.0163 29.0575 40.7439 27.3267 40.7439 25.2114L40.7633 4.05778C40.7633 1.94242 39.0163 0.21167 36.8811 0.21167H5.8236C3.68839 0.21167 1.94141 1.94242 1.94141 4.05778V25.2114C1.94141 27.3267 3.68839 29.0575 5.8236 29.0575ZM5.8236 4.05778H36.8811V25.2114H5.8236V4.05778Z" fill="#D0D0D0"/>
<path d="M42.7041 30.9805H0V34.8272H42.7041V30.9805Z" fill="#D0D0D0"/>
<path d="M25.1761 8.9232C22.5168 6.28862 18.227 6.28862 15.5677 8.9232C12.9084 11.5578 12.9084 15.8077 15.5677 18.4423C17.8582 20.7115 21.391 21.0192 24.0309 19.3462L28.0878 23.3653L30.1453 21.3269L26.0885 17.3077C27.7772 14.6924 27.486 11.1924 25.1761 8.9232ZM23.1186 16.3847C21.6045 17.8846 19.1393 17.8846 17.6253 16.3847C16.1112 14.8847 16.1112 12.4424 17.6253 10.9424C19.1393 9.44243 21.6045 9.44243 23.1186 10.9424C24.6326 12.4616 24.6326 14.8847 23.1186 16.3847Z" fill="#D0D0D0"/>
</svg>
