<svg width="42" height="42" viewBox="0 0 42 42" fill="none" xmlns="http://www.w3.org/2000/svg">
<path d="M40.25 19.1163H38.4112C38.002 15.2341 36.2205 11.6074 33.3673 8.84803C30.5142 6.0887 26.7641 4.36574 22.75 3.96992V0.499268H19.25V3.96992C15.2358 4.36557 11.4856 6.08847 8.63243 8.84783C5.77924 11.6072 3.99776 15.2341 3.58865 19.1163H0V22.5012H3.58865C3.99794 26.3833 5.77947 30.0101 8.63263 32.7694C11.4858 35.5287 15.2359 37.2516 19.25 37.6474V41.1182H22.75V37.6474C26.7641 37.2515 30.5141 35.5285 33.3672 32.7692C36.2203 30.0099 38.0018 26.3833 38.4112 22.5012H42V19.1163H40.25ZM24.0145 19.1163C23.7099 18.6094 23.2741 18.1879 22.75 17.8933V13.8382C24.0721 14.1506 25.2801 14.8079 26.2424 15.7386C27.2048 16.6693 27.8845 17.8377 28.2074 19.1163H24.0145ZM28.2076 22.5012C27.8846 23.7798 27.2049 24.9482 26.2426 25.8789C25.2802 26.8096 24.0721 27.467 22.75 27.7793V23.7241C23.2742 23.4296 23.71 23.0081 24.0145 22.5012H28.2076ZM19.25 7.38665V11.2343C17.2211 11.5843 15.3519 12.5276 13.8946 13.937C12.4373 15.3464 11.4619 17.1541 11.1001 19.1163H7.12155C7.51403 16.138 8.91807 13.3701 11.1132 11.2471C13.3084 9.12408 16.1705 7.76621 19.25 7.38665ZM17.9855 19.1163H13.7926C14.1156 17.8377 14.7954 16.6695 15.7577 15.7388C16.72 14.8081 17.928 14.1508 19.25 13.8383V17.8933C18.7259 18.1879 18.2901 18.6094 17.9855 19.1163ZM19.25 23.7241V27.7792C17.9279 27.4668 16.7199 26.8095 15.7575 25.8788C14.7952 24.9481 14.1155 23.7798 13.7925 22.5012H17.9855C18.29 23.0081 18.7258 23.4296 19.25 23.7241ZM7.12155 22.5012H11.1001C11.4618 24.4634 12.4372 26.2712 13.8945 27.6806C15.3518 29.09 17.221 30.0333 19.25 30.3831V34.2308C16.1705 33.8512 13.3084 32.4934 11.1132 30.3704C8.91807 28.2474 7.51403 25.4795 7.12155 22.5012ZM22.75 34.2308V30.3831C24.779 30.0333 26.6483 29.0901 28.1056 27.6807C29.563 26.2713 30.5383 24.4635 30.8999 22.5012H34.8784C34.486 25.4795 33.0819 28.2474 30.8868 30.3704C28.6916 32.4934 25.8295 33.8512 22.75 34.2308ZM30.8999 19.1163C30.5382 17.154 29.5628 15.3463 28.1055 13.9369C26.6482 12.5275 24.779 11.5842 22.75 11.2343V7.38665C25.8295 7.76621 28.6916 9.12408 30.8868 11.2471C33.0819 13.3701 34.486 16.138 34.8784 19.1163H30.8999Z" fill="#D0D0D0"/>
</svg>
