<svg width="33" height="34" viewBox="0 0 33 34" fill="none" xmlns="http://www.w3.org/2000/svg">
<path d="M25.6667 16.7045C25.6667 11.6916 21.56 7.62308 16.5 7.62308C11.44 7.62308 7.33333 11.6916 7.33333 16.7045C7.33333 21.7175 11.44 25.786 16.5 25.786C21.56 25.786 25.6667 21.7175 25.6667 16.7045ZM16.5 22.1534C13.475 22.1534 11 19.7014 11 16.7045C11 13.7077 13.475 11.2557 16.5 11.2557C19.525 11.2557 22 13.7077 22 16.7045C22 19.7014 19.525 22.1534 16.5 22.1534ZM3.66667 22.1534H0V29.4186C0 31.4165 1.65 33.0512 3.66667 33.0512H11V29.4186H3.66667V22.1534ZM3.66667 3.9905H11V0.35791H3.66667C1.65 0.35791 0 1.99257 0 3.9905V11.2557H3.66667V3.9905ZM29.3333 0.35791H22V3.9905H29.3333V11.2557H33V3.9905C33 1.99257 31.35 0.35791 29.3333 0.35791ZM29.3333 29.4186H22V33.0512H29.3333C31.35 33.0512 33 31.4165 33 29.4186V22.1534H29.3333V29.4186Z" fill="#ED8B00"/>
</svg>
