<svg width="62" height="60" viewBox="0 0 62 60" fill="none" xmlns="http://www.w3.org/2000/svg">
<path d="M0 2.00226C0 0.852737 0.811035 0 1.79504 0C2.77905 0 3.62467 0.852737 3.62467 2.00226C3.62467 3.15178 2.77905 4.04214 1.79504 4.04214C0.811035 4.04214 0 3.15178 0 2.00226Z" fill="#ED8B00"/>
<path d="M9.72852 2.00226C9.72852 0.852737 10.5434 0 11.5236 0C12.5037 0 13.3532 0.852737 13.3532 2.00226C13.3532 3.15178 12.5076 4.04214 11.5236 4.04214C10.5396 4.04214 9.72852 3.15178 9.72852 2.00226Z" fill="#ED8B00"/>
<path d="M19.457 2.00226C19.457 0.852737 20.2719 0 21.2521 0C22.2322 0 23.0817 0.852737 23.0817 2.00226C23.0817 3.15178 22.2361 4.04214 21.2521 4.04214C20.2681 4.04214 19.457 3.15178 19.457 2.00226Z" fill="#ED8B00"/>
<path d="M29.1855 2.00226C29.1855 0.852737 30.0004 0 30.9806 0C31.9607 0 32.8102 0.852737 32.8102 2.00226C32.8102 3.15178 31.9646 4.04214 30.9806 4.04214C29.9966 4.04214 29.1855 3.15178 29.1855 2.00226Z" fill="#ED8B00"/>
<path d="M38.9141 2.00226C38.9141 0.852737 39.7289 0 40.7091 0C41.6893 0 42.5387 0.852737 42.5387 2.00226C42.5387 3.15178 41.6931 4.04214 40.7091 4.04214C39.7251 4.04214 38.9141 3.15178 38.9141 2.00226Z" fill="#ED8B00"/>
<path d="M48.6426 2.00226C48.6426 0.852737 49.4575 0 50.4376 0C51.4178 0 52.2673 0.852737 52.2673 2.00226C52.2673 3.15178 51.4216 4.04214 50.4376 4.04214C49.4536 4.04214 48.6426 3.15178 48.6426 2.00226Z" fill="#ED8B00"/>
<path d="M58.3716 2.00226C58.3716 0.852737 59.1865 0 60.1666 0C61.1468 0 61.9963 0.852737 61.9963 2.00226C61.9963 3.15178 61.1506 4.04214 60.1666 4.04214C59.1826 4.04214 58.3716 3.15178 58.3716 2.00226Z" fill="#ED8B00"/>
<path d="M0 20.545C0 19.3955 0.811035 18.5427 1.79504 18.5427C2.77905 18.5427 3.62467 19.3955 3.62467 20.545C3.62467 21.6945 2.77905 22.5849 1.79504 22.5849C0.811035 22.5849 0 21.6945 0 20.545Z" fill="#ED8B00"/>
<path d="M9.72852 20.545C9.72852 19.3955 10.5434 18.5427 11.5236 18.5427C12.5037 18.5427 13.3532 19.3955 13.3532 20.545C13.3532 21.6945 12.5076 22.5849 11.5236 22.5849C10.5396 22.5849 9.72852 21.6945 9.72852 20.545Z" fill="#ED8B00"/>
<path d="M19.457 20.545C19.457 19.3955 20.2719 18.5427 21.2521 18.5427C22.2322 18.5427 23.0817 19.3955 23.0817 20.545C23.0817 21.6945 22.2361 22.5849 21.2521 22.5849C20.2681 22.5849 19.457 21.6945 19.457 20.545Z" fill="#ED8B00"/>
<path d="M29.1855 20.545C29.1855 19.3955 30.0004 18.5427 30.9806 18.5427C31.9607 18.5427 32.8102 19.3955 32.8102 20.545C32.8102 21.6945 31.9646 22.5849 30.9806 22.5849C29.9966 22.5849 29.1855 21.6945 29.1855 20.545Z" fill="#ED8B00"/>
<path d="M38.9141 20.545C38.9141 19.3955 39.7289 18.5427 40.7091 18.5427C41.6893 18.5427 42.5387 19.3955 42.5387 20.545C42.5387 21.6945 41.6931 22.5849 40.7091 22.5849C39.7251 22.5849 38.9141 21.6945 38.9141 20.545Z" fill="#ED8B00"/>
<path d="M48.6426 20.545C48.6426 19.3955 49.4575 18.5427 50.4376 18.5427C51.4178 18.5427 52.2673 19.3955 52.2673 20.545C52.2673 21.6945 51.4216 22.5849 50.4376 22.5849C49.4536 22.5849 48.6426 21.6945 48.6426 20.545Z" fill="#ED8B00"/>
<path d="M58.3716 20.545C58.3716 19.3955 59.1865 18.5427 60.1666 18.5427C61.1468 18.5427 61.9963 19.3955 61.9963 20.545C61.9963 21.6945 61.1506 22.5849 60.1666 22.5849C59.1826 22.5849 58.3716 21.6945 58.3716 20.545Z" fill="#ED8B00"/>
<path d="M0 39.0921C0 37.9426 0.811035 37.0898 1.79504 37.0898C2.77905 37.0898 3.62467 37.9426 3.62467 39.0921C3.62467 40.2416 2.77905 41.132 1.79504 41.132C0.811035 41.132 0 40.2416 0 39.0921Z" fill="#ED8B00"/>
<path d="M9.72852 39.0921C9.72852 37.9426 10.5434 37.0898 11.5236 37.0898C12.5037 37.0898 13.3532 37.9426 13.3532 39.0921C13.3532 40.2416 12.5076 41.132 11.5236 41.132C10.5396 41.132 9.72852 40.2416 9.72852 39.0921Z" fill="#ED8B00"/>
<path d="M19.457 39.0921C19.457 37.9426 20.2719 37.0898 21.2521 37.0898C22.2322 37.0898 23.0817 37.9426 23.0817 39.0921C23.0817 40.2416 22.2361 41.132 21.2521 41.132C20.2681 41.132 19.457 40.2416 19.457 39.0921Z" fill="#ED8B00"/>
<path d="M29.1855 39.0921C29.1855 37.9426 30.0004 37.0898 30.9806 37.0898C31.9607 37.0898 32.8102 37.9426 32.8102 39.0921C32.8102 40.2416 31.9646 41.132 30.9806 41.132C29.9966 41.132 29.1855 40.2416 29.1855 39.0921Z" fill="#ED8B00"/>
<path d="M38.9141 39.0921C38.9141 37.9426 39.7289 37.0898 40.7091 37.0898C41.6893 37.0898 42.5387 37.9426 42.5387 39.0921C42.5387 40.2416 41.6931 41.132 40.7091 41.132C39.7251 41.132 38.9141 40.2416 38.9141 39.0921Z" fill="#ED8B00"/>
<path d="M48.6426 39.0921C48.6426 37.9426 49.4575 37.0898 50.4376 37.0898C51.4178 37.0898 52.2673 37.9426 52.2673 39.0921C52.2673 40.2416 51.4216 41.132 50.4376 41.132C49.4536 41.132 48.6426 40.2416 48.6426 39.0921Z" fill="#ED8B00"/>
<path d="M58.3716 39.0921C58.3716 37.9426 59.1865 37.0898 60.1666 37.0898C61.1468 37.0898 61.9963 37.9426 61.9963 39.0921C61.9963 40.2416 61.1506 41.132 60.1666 41.132C59.1826 41.132 58.3716 40.2416 58.3716 39.0921Z" fill="#ED8B00"/>
<path d="M0 57.6348C0 56.4853 0.811035 55.6326 1.79504 55.6326C2.77905 55.6326 3.62467 56.4853 3.62467 57.6348C3.62467 58.7843 2.77905 59.6747 1.79504 59.6747C0.811035 59.6747 0 58.7843 0 57.6348Z" fill="#ED8B00"/>
<path d="M9.72852 57.6348C9.72852 56.4853 10.5434 55.6326 11.5236 55.6326C12.5037 55.6326 13.3532 56.4853 13.3532 57.6348C13.3532 58.7843 12.5076 59.6747 11.5236 59.6747C10.5396 59.6747 9.72852 58.7843 9.72852 57.6348Z" fill="#ED8B00"/>
<path d="M19.457 57.6348C19.457 56.4853 20.2719 55.6326 21.2521 55.6326C22.2322 55.6326 23.0817 56.4853 23.0817 57.6348C23.0817 58.7843 22.2361 59.6747 21.2521 59.6747C20.2681 59.6747 19.457 58.7843 19.457 57.6348Z" fill="#ED8B00"/>
<path d="M29.1855 57.6348C29.1855 56.4853 30.0004 55.6326 30.9806 55.6326C31.9607 55.6326 32.8102 56.4853 32.8102 57.6348C32.8102 58.7843 31.9646 59.6747 30.9806 59.6747C29.9966 59.6747 29.1855 58.7843 29.1855 57.6348Z" fill="#ED8B00"/>
<path d="M38.9141 57.6348C38.9141 56.4853 39.7289 55.6326 40.7091 55.6326C41.6893 55.6326 42.5387 56.4853 42.5387 57.6348C42.5387 58.7843 41.6931 59.6747 40.7091 59.6747C39.7251 59.6747 38.9141 58.7843 38.9141 57.6348Z" fill="#ED8B00"/>
<path d="M48.6426 57.6348C48.6426 56.4853 49.4575 55.6326 50.4376 55.6326C51.4178 55.6326 52.2673 56.4853 52.2673 57.6348C52.2673 58.7843 51.4216 59.6747 50.4376 59.6747C49.4536 59.6747 48.6426 58.7843 48.6426 57.6348Z" fill="#ED8B00"/>
<path d="M58.3716 57.6348C58.3716 56.4853 59.1865 55.6326 60.1666 55.6326C61.1468 55.6326 61.9963 56.4853 61.9963 57.6348C61.9963 58.7843 61.1506 59.6747 60.1666 59.6747C59.1826 59.6747 58.3716 58.7843 58.3716 57.6348Z" fill="#ED8B00"/>
</svg>
