<svg width="35" height="37" viewBox="0 0 35 37" fill="none" xmlns="http://www.w3.org/2000/svg">
<path d="M29.6486 34.975C32.2327 34.975 34.3276 32.8996 34.3276 30.3395C34.3276 27.7795 32.2327 25.7041 29.6486 25.7041C27.0645 25.7041 24.9697 27.7795 24.9697 30.3395C24.9697 32.8996 27.0645 34.975 29.6486 34.975Z" fill="#ED8B00"/>
<path d="M26.5138 4.0566H9.09269C8.72478 3.02566 8.00083 2.15677 7.04881 1.60349C6.09679 1.05021 4.97799 0.848166 3.89015 1.03307C2.80231 1.21798 1.81548 1.77794 1.10406 2.61396C0.392643 3.44999 0.00245307 4.50827 0.00245307 5.60174C0.00245307 6.69522 0.392643 7.75349 1.10406 8.58952C1.81548 9.42555 2.80231 9.9855 3.89015 10.1704C4.97799 10.3553 6.09679 10.1533 7.04881 9.6C8.00083 9.04672 8.72478 8.17782 9.09269 7.14688H26.5138C27.7548 7.14688 28.9449 7.63526 29.8223 8.50457C30.6998 9.37388 31.1928 10.5529 31.1928 11.7823C31.1928 13.0117 30.6998 14.1907 29.8223 15.0601C28.9449 15.9294 27.7548 16.4177 26.5138 16.4177H21.5698C21.2419 15.5229 20.6439 14.7497 19.857 14.2033C19.0702 13.6569 18.1325 13.3638 17.1716 13.3638C16.2107 13.3638 15.2731 13.6569 14.4862 14.2033C13.6993 14.7497 13.1013 15.5229 12.7734 16.4177H7.79819C5.72998 16.4177 3.74648 17.2317 2.28404 18.6805C0.821592 20.1294 0 22.0945 0 24.1434C0 26.1924 0.821592 28.1575 2.28404 29.6063C3.74648 31.0552 5.72998 31.8692 7.79819 31.8692H17.156V36.5046L23.3946 30.324L17.156 24.1434V28.7789H7.79819C6.55726 28.7789 5.36716 28.2905 4.4897 27.4212C3.61223 26.5519 3.11928 25.3728 3.11928 24.1434C3.11928 22.9141 3.61223 21.735 4.4897 20.8657C5.36716 19.9964 6.55726 19.508 7.79819 19.508H12.789C13.1199 20.3977 13.7182 21.1655 14.5033 21.7078C15.2883 22.2501 16.2224 22.5408 17.1794 22.5408C18.1365 22.5408 19.0705 22.2501 19.8555 21.7078C20.6406 21.1655 21.2389 20.3977 21.5698 19.508H26.5138C28.5821 19.508 30.5656 18.6941 32.028 17.2452C33.4904 15.7964 34.312 13.8313 34.312 11.7823C34.312 9.73333 33.4904 7.76826 32.028 6.31941C30.5656 4.87056 28.5821 4.0566 26.5138 4.0566Z" fill="#ED8B00"/>
</svg>
